<svg xmlns="http://www.w3.org/2000/svg" width="36" height="36" viewBox="0 0 36 36">
    <g fill="none" fill-rule="evenodd">
        <g>
            <g>
                <g>
                    <path d="M0 0H36V36H0z" transform="translate(-340 -62) translate(0 40) translate(340 22)"/>
                    <path fill="#000" d="M22.714 8c-.558 0-1.03.382-1.207.913h-2.65c-.309-.005-.596.168-.752.453-.156.284-.156.636 0 .92.156.285.443.458.752.453H21.8c.503 1.27 1.343 3.645 1.343 5.478 0 3.653-2.572 5.479-4.286 5.479h-1.714c-.947 0-1.714-.818-1.714-1.826v-1.827H8.57S6 18.957 6 21.696c.308.107 1.12.478 2.047.913-.722.67-1.19 1.646-1.19 2.739 0 2.006 1.545 3.652 3.429 3.652 1.883 0 3.428-1.646 3.428-3.652 0-.016-.005-.03-.005-.047.125.03.252.047.382.047h6.273c.682 0 1.336-.289 1.818-.803l.104-.11h.124c-.073.294-.124.596-.124.913 0 2.006 1.545 3.652 3.428 3.652 1.884 0 3.429-1.646 3.429-3.652 0-.441-.086-.86-.223-1.252l1.08-.574s-1.19-2.599-3.658-3.408l.23-.244c-.051-3.383-1.864-7.367-2.852-9.13h1.137V8h-2.143zM8.581 14.125c-.308-.004-.595.161-.75.434-.156.272-.156.61 0 .882.155.273.442.438.75.434h6.838c.308.004.595-.161.75-.434.156-.272.156-.61 0-.882-.155-.273-.442-.438-.75-.434H8.58zm1.442 9.625c.694.323 1.142.534 1.72.806.16.27.257.586.257.93 0 .985-.757 1.764-1.714 1.764s-1.715-.78-1.715-1.764c0-.891.624-1.607 1.452-1.736zm14.21.875h2.963c.144.257.233.553.233.875 0 .977-.758 1.75-1.715 1.75-.957 0-1.714-.773-1.714-1.75 0-.322.088-.618.233-.875z" transform="translate(-340 -62) translate(0 40) translate(340 22)"/>
                </g>
            </g>
        </g>
    </g>
</svg>
