<svg xmlns="http://www.w3.org/2000/svg" width="36" height="36" viewBox="0 0 36 36">
    <g fill="none" fill-rule="evenodd">
        <g>
            <g>
                <g>
                    <path d="M0 0H36V36H0z" transform="translate(-340 -62) translate(0 40) translate(340 22)"/>
                    <path fill="#000" d="M7.843 16.22c.655-1.667 1.27-3.333 1.925-4.999.614-1.15 1.515-1.864 2.662-2.221h11.14c1.106.357 2.048 1.071 2.662 2.221.614 1.666 1.27 3.332 1.925 4.998.573.714 1.188 1.428 1.761 2.5 0 2.657.082 5.314.082 8.012 0 .674-.614 1.269-1.352 1.269h-.9c-.738 0-1.311-.595-1.311-1.27v-1.626c-5.693.675-11.222.675-16.874 0v1.627c0 .674-.614 1.269-1.31 1.269H7.31C6.573 28 6 27.405 6 26.73c0-2.697.082-5.354.082-8.012.573-1.07 1.188-1.785 1.761-2.499zm4.792-5.475c-.737.12-1.147.556-1.434 1.11-.45 1.31-1.024 2.817-1.474 4.126 5.775-.714 10.771-.714 16.546 0-.491-1.309-1.024-2.816-1.515-4.125-.246-.555-.697-.992-1.393-1.11h-10.73zm2.457 8.092c-.45 0-.819.357-.819.793v.318c0 .396.369.753.82.753h5.815c.41 0 .778-.357.778-.753v-.318c0-.436-.369-.793-.778-.793h-5.816zm10.69 0c-.82 0-1.475.635-1.475 1.428 0 .793.655 1.428 1.475 1.428.819 0 1.433-.635 1.433-1.428 0-.793-.614-1.428-1.433-1.428zm-15.564 0c.779 0 1.434.635 1.434 1.428 0 .793-.655 1.428-1.434 1.428-.819 0-1.474-.635-1.474-1.428 0-.793.655-1.428 1.474-1.428z" transform="translate(-340 -62) translate(0 40) translate(340 22)"/>
                </g>
            </g>
        </g>
    </g>
</svg>
