<svg width="20" height="18" viewBox="0 0 20 18" fill="none" xmlns="http://www.w3.org/2000/svg">
<path d="M6.78698 9.25705C6.80011 9.04277 6.81325 8.82818 6.8413 8.61144C6.89315 8.09754 7.00457 7.58153 7.1184 7.07957C7.18769 6.8292 7.26276 6.58188 7.34151 6.34009C7.44221 6.10408 7.54076 5.86934 7.63905 5.64007C7.86152 5.19252 8.11026 4.77434 8.40717 4.4243C8.47767 4.33411 8.54753 4.2467 8.61593 4.15898C8.69404 4.08074 8.77221 4.00491 8.84754 3.92908C9.00656 3.78511 9.14445 3.62919 9.3032 3.51484C9.6196 3.2801 9.89955 3.05693 10.1845 2.91875C10.4592 2.76525 10.6948 2.63202 10.9072 2.55682C11.3234 2.38901 11.5597 2.30466 11.5597 2.30466C11.5597 2.30466 11.3582 2.46484 11.0061 2.72468C10.8242 2.84361 10.6313 3.03131 10.4018 3.22359C10.1625 3.40697 9.94588 3.66987 9.68832 3.92182C9.55951 4.05053 9.45949 4.21224 9.33766 4.3611C9.27846 4.43693 9.21774 4.51334 9.15512 4.591C9.10448 4.67662 9.052 4.7625 8.99889 4.85022C8.77153 5.18773 8.60159 5.58392 8.4245 5.98589C8.35185 6.19622 8.27836 6.4096 8.20324 6.62508C8.15197 6.84915 8.09523 7.07563 8.0333 7.30127C7.94021 7.76497 7.84896 8.23793 7.80957 8.72426C7.78214 8.90064 7.76901 9.07856 7.75252 9.25768C11.6102 9.25831 14.5961 9.26073 18.774 9.26073C18.788 9.07729 18.7959 8.89143 18.7959 8.70468C18.7959 5.18005 16.2318 2.27714 12.9323 1.89258C13.1453 1.69299 13.2802 1.40988 13.2802 1.095C13.2814 0.489747 12.7919 0 12.1889 0C11.5852 0 11.0952 0.489747 11.0952 1.095C11.0952 1.41052 11.2294 1.69294 11.443 1.89258C8.14377 2.27714 5.58032 5.18005 5.58032 8.70468C5.58032 8.89086 5.58699 9.07424 5.60076 9.2571C6.00819 9.25705 6.40155 9.25705 6.78698 9.25705Z" fill="#666666"/>
<path d="M20 9.66492H4.37744V11.0455H20V9.66492Z" fill="#666666"/>
<path d="M13.5864 12.0253C12.7924 12.4117 10.0238 13.4119 10.0238 13.4119L6.75109 13.2066C6.75109 13.2066 8.62306 12.685 9.34874 12.5218C10.0757 12.3591 9.75949 11.5381 9.35757 11.5381C8.9557 11.5381 5.45319 11.683 5.45319 11.683L3.12744 12.5218L3.74296 16.4243C3.74296 16.4243 4.22179 15.6032 4.69941 15.6032C5.17881 15.6032 9.33135 15.7139 9.89502 15.6032C10.459 15.4913 13.8941 13.1374 14.3054 12.8629C14.715 12.5896 14.3835 11.6383 13.5864 12.0253Z" fill="#666666"/>
<path d="M0 12.9414V18.0001L3.56324 17.3318L2.67182 12.4706L0 12.9414Z" fill="#666666"/>
</svg>
