<svg xmlns="http://www.w3.org/2000/svg" width="36" height="36" viewBox="0 0 36 36">
    <g fill="none" fill-rule="evenodd">
        <g>
            <g>
                <g>
                    <path d="M0 0H36V36H0z" transform="translate(-340 -62) translate(0 40) translate(340 22)"/>
                    <path fill="#000" fill-rule="nonzero" d="M25.05 16.513c.434.858 1.313 1.447 2.337 1.447.487 0 .916-.134 1.32-.366v9.811H30V30H6v-2.595h1.374v-9.764c.404.203.812.319 1.266.319 1.023 0 1.923-.589 2.357-1.447.433.858 1.32 1.447 2.343 1.447 1.024 0 1.91-.589 2.343-1.447.433.858 1.32 1.447 2.343 1.447 1.024 0 1.91-.589 2.343-1.447.433.858 1.318 1.447 2.341 1.447 1.024 0 1.907-.589 2.34-1.447zm-9.676 2.865H10.04v6.649h5.334v-6.649zm10.666 0h-8v3.973h8v-3.973zM27.414 6v3.973l2.574 5.351h-4.995l-1.574-5.351h-3.693l.714 5.351h-4.826l.732-5.351H12.76l-1.698 5.351H6.068l2.68-5.351V6h18.666z" transform="translate(-340 -62) translate(0 40) translate(340 22)"/>
                </g>
            </g>
        </g>
    </g>
</svg>
