<?xml version="1.0" encoding="utf-8"?>
<svg viewBox="0 0 36 36" xmlns="http://www.w3.org/2000/svg">
  <g fill="none" fill-rule="evenodd">
    <g>
      <g transform="matrix(1, 0, 0, 1, 1, 0)">
        <g>
          <path d="M0 0H36V36H0z" transform="translate(-340 -62) translate(0 40) translate(340 22)"/>
          <path fill="#000" fill-rule="nonzero" d="M 18.407 9.413 L 18.447 9.415 L 18.463 9.415 C 18.922 9.415 20.383 9.498 22.046 10.508 C 23.71 11.514 25.519 13.471 26.618 16.973 C 26.785 17.503 26.508 18.076 26 18.251 C 25.9 18.285 25.797 18.301 25.696 18.301 L 25.651 18.298 L 25.651 22.813 L 19.689 22.813 L 19.689 16.593 L 24.414 16.593 C 23.452 14.174 22.181 12.941 21.067 12.256 C 20.421 11.861 19.814 11.656 19.344 11.55 L 19.344 31.436 C 19.344 32.3 18.673 33 17.844 33 C 17.017 33 16.346 32.3 16.346 31.436 L 16.346 20.018 L 15.784 20.018 L 15.784 31.436 C 15.784 32.3 15.112 33 14.284 33 C 13.456 33 12.785 32.3 12.785 31.436 L 12.785 12.463 C 12.365 13.361 11.936 15.082 11.94 18.145 C 11.94 18.842 11.962 19.608 12.01 20.449 C 12.04 21.007 11.632 21.486 11.097 21.519 L 11.04 21.521 C 10.53 21.521 10.102 21.106 10.072 20.568 C 10.022 19.691 10 18.885 10 18.145 C 10.001 15.279 10.336 13.381 10.834 12.068 C 11.326 10.76 12.029 10.022 12.682 9.685 C 13.094 9.468 13.457 9.418 13.676 9.415 L 13.722 9.413 L 18.407 9.413 Z M 16.065 3 C 17.571 3 18.793 4.274 18.793 5.846 C 18.793 7.418 17.571 8.692 16.065 8.692 C 14.558 8.692 13.336 7.418 13.336 5.846 C 13.336 4.274 14.558 3 16.065 3 Z"/>
        </g>
      </g>
    </g>
  </g>
</svg>