<svg width="18" height="18" viewBox="0 0 18 18" fill="none" xmlns="http://www.w3.org/2000/svg">
<path d="M9 0.25C4.16797 0.25 0.25 4.16797 0.25 9C0.25 13.832 4.16797 17.75 9 17.75C13.832 17.75 17.75 13.832 17.75 9C17.75 4.16797 13.832 0.25 9 0.25ZM9 16.2656C4.98828 16.2656 1.73438 13.0117 1.73438 9C1.73438 4.98828 4.98828 1.73438 9 1.73438C13.0117 1.73438 16.2656 4.98828 16.2656 9C16.2656 13.0117 13.0117 16.2656 9 16.2656Z" fill="#5D1CD4"/>
<path d="M12.5938 8.375H9.625V5.40625C9.625 5.32031 9.55469 5.25 9.46875 5.25H8.53125C8.44531 5.25 8.375 5.32031 8.375 5.40625V8.375H5.40625C5.32031 8.375 5.25 8.44531 5.25 8.53125V9.46875C5.25 9.55469 5.32031 9.625 5.40625 9.625H8.375V12.5938C8.375 12.6797 8.44531 12.75 8.53125 12.75H9.46875C9.55469 12.75 9.625 12.6797 9.625 12.5938V9.625H12.5938C12.6797 9.625 12.75 9.55469 12.75 9.46875V8.53125C12.75 8.44531 12.6797 8.375 12.5938 8.375Z" fill="#5D1CD4"/>
</svg>
