<svg width="14" height="14" viewBox="0 0 14 14" fill="none" xmlns="http://www.w3.org/2000/svg">
<path d="M6.66667 13.8333C2.98467 13.8333 0 10.8487 0 7.16667C0 3.48467 2.98467 0.5 6.66667 0.5C10.3487 0.5 13.3333 3.48467 13.3333 7.16667C13.3333 10.8487 10.3487 13.8333 6.66667 13.8333ZM6.66667 12.5C8.08115 12.5 9.43771 11.9381 10.4379 10.9379C11.4381 9.93771 12 8.58115 12 7.16667C12 5.75218 11.4381 4.39562 10.4379 3.39543C9.43771 2.39524 8.08115 1.83333 6.66667 1.83333C5.25218 1.83333 3.89562 2.39524 2.89543 3.39543C1.89524 4.39562 1.33333 5.75218 1.33333 7.16667C1.33333 8.58115 1.89524 9.93771 2.89543 10.9379C3.89562 11.9381 5.25218 12.5 6.66667 12.5ZM6 4.5C6 4.13181 6.29848 3.83333 6.66667 3.83333C7.03486 3.83333 7.33333 4.13181 7.33333 4.5C7.33333 4.86819 7.03486 5.16667 6.66667 5.16667C6.29848 5.16667 6 4.86819 6 4.5ZM6 7.16667C6 6.79848 6.29848 6.5 6.66667 6.5C7.03486 6.5 7.33333 6.79848 7.33333 7.16667V9.83333C7.33333 10.2015 7.03486 10.5 6.66667 10.5C6.29848 10.5 6 10.2015 6 9.83333V7.16667Z" fill="#AC87EF"/>
</svg>
