<svg xmlns="http://www.w3.org/2000/svg" width="36" height="36" viewBox="0 0 36 36">
    <g fill="none" fill-rule="evenodd">
        <g fill-rule="nonzero">
            <g>
                <g>
                    <path fill="#271c4c" opacity=".7" d="M31 0H5C2.24.003.003 2.24 0 5v26c.003 2.76 2.24 4.997 5 5h26c2.76-.003 4.997-2.24 5-5V5c-.003-2.76-2.24-4.997-5-5zm3 31c-.002 1.656-1.344 2.998-3 3H5c-1.656-.002-2.998-1.344-3-3V5c.002-1.656 1.344-2.998 3-3h26c1.656.002 2.998 1.344 3 3v26z" transform="translate(-326 -61) translate(1 40) translate(325 21)"/>
                    <path fill="#271c4c" d="M27 11H11c-.552 0-1 .448-1 1s.448 1 1 1h16c.552 0 1-.448 1-1s-.448-1-1-1z" transform="translate(-326 -61) translate(1 40) translate(325 21)"/>
                    <path fill="#271c4c" d="M27 17H15c-.552 0-1 .448-1 1s.448 1 1 1h12c.552 0 1-.448 1-1s-.448-1-1-1z" opacity=".8" transform="translate(-326 -61) translate(1 40) translate(325 21)"/>
                    <path fill="#271c4c" d="M27 23H11c-.552 0-1 .448-1 1s.448 1 1 1h16c.552 0 1-.448 1-1s-.448-1-1-1z" opacity=".6" transform="translate(-326 -61) translate(1 40) translate(325 21)"/>
                </g>
            </g>
        </g>
    </g>
</svg>
