<svg xmlns="http://www.w3.org/2000/svg" width="45" height="33" viewBox="0 0 45 33">
    <g fill="none" fill-rule="evenodd">
        <g>
            <g>
                <g>
                    <g transform="translate(-32 -468) translate(0 194) translate(32 143) translate(0 131)">
                        <rect width="44.8" height="32.2" fill="#000" rx="4.2"/>
                        <path fill="#FFF" fill-rule="nonzero" d="M11.214 12.121c.454 0 1.023-.307 1.362-.716.307-.37.53-.889.53-1.407 0-.07-.006-.14-.019-.198-.505.02-1.112.339-1.477.767-.288.326-.55.838-.55 1.362 0 .077.013.154.02.18.031.006.083.012.134.012zm-1.599 7.737c.62 0 .895-.416 1.67-.416.786 0 .958.403 1.649.403.678 0 1.131-.626 1.56-1.24.48-.704.678-1.394.69-1.426-.044-.013-1.342-.544-1.342-2.034 0-1.291 1.023-1.873 1.08-1.918-.677-.972-1.707-.997-1.988-.997-.761 0-1.381.46-1.771.46-.422 0-.979-.435-1.637-.435C8.272 12.255 7 13.291 7 15.248c0 1.215.473 2.5 1.055 3.331.499.703.934 1.279 1.56 1.279zm9.496-.115v-3.05h2.001c1.867 0 3.172-1.247 3.172-3.07 0-1.854-1.26-3.107-3.101-3.107H17.46v9.227h1.65zm1.63-4.38h-1.63v-3.498h1.637c1.19 0 1.86.614 1.86 1.759 0 1.112-.69 1.739-1.867 1.739zm6.165 4.495c.914 0 1.682-.397 2.072-1.074h.108v.959h1.529v-4.777c0-1.477-1.01-2.346-2.808-2.346-1.662 0-2.82.78-2.947 2.001h1.496c.147-.48.646-.742 1.375-.742.857 0 1.317.39 1.317 1.087v.601l-1.803.11c-1.701.095-2.654.83-2.654 2.084 0 1.278.966 2.097 2.315 2.097zm.467-1.221c-.704 0-1.209-.352-1.209-.953 0-.582.416-.908 1.305-.966l1.579-.108v.569c0 .831-.716 1.458-1.675 1.458zm5 3.638c1.567 0 2.315-.57 2.91-2.29l2.525-7.23h-1.675l-1.63 5.485h-.109l-1.637-5.486h-1.74l2.501 7.014-.083.327c-.205.658-.582.914-1.253.914-.11 0-.346-.007-.435-.02v1.26c.102.02.53.026.626.026z"/>
                    </g>
                </g>
            </g>
        </g>
    </g>
</svg>
