<svg xmlns="http://www.w3.org/2000/svg" width="97" height="119" viewBox="0 0 97 119">
  <defs>
    <filter id="cb6ottskra" width="126%" height="373.6%" x="-13%" y="-136.8%" filterUnits="objectBoundingBox">
      <feGaussianBlur in="SourceGraphic" stdDeviation="3.133"/>
    </filter>
  </defs>
  <g fill="none" fill-rule="evenodd">
    <g>
      <g>
        <g>
          <g transform="translate(-1062 -218) translate(950 219) translate(112) translate(.271)">
            <g>
              <path fill="#1B3554" d="M11.31 93.892L83.53 93.892 83.53 100.762 11.31 100.762z" filter="url(#cb6ottskra)" transform="translate(0 6.87)"/>
              <path fill="#E0E5EC" d="M11.892 0L84.112 0 84.112 45.228 11.892 45.228z" transform="translate(0 6.87)"/>
              <path fill="#CFD4DC" d="M11.892 0L11.892 68.701 0.244 68.701 0.244 27.158 6.069 18.37z" transform="translate(0 6.87)"/>
              <path fill="#CFD4DC" d="M95.178 0L95.178 68.701 83.53 68.701 83.53 27.158 89.355 18.37z" transform="translate(0 6.87) matrix(-1 0 0 1 178.708 0)"/>
              <path fill="#562D8A" d="M.244 26.908h94.934v78.963c0 .973-.788 1.76-1.76 1.76H2.004c-.972 0-1.76-.787-1.76-1.76V26.908z" transform="translate(0 6.87)"/>
            </g>
            <g fill="#323232">
              <path d="M1.395.657C2.415.22 3.422 0 4.413 0c.972 0 1.944.21 2.915.63.855.37 1.408 1.213 1.408 2.145 0 .45-.365.816-.816.816-.12 0-.239-.026-.347-.077-1.052-.493-2.113-.74-3.182-.74-1.074 0-2.148.25-3.222.747-.412.192-.901.012-1.093-.4C.026 3.012 0 2.894 0 2.775 0 1.853.549 1.02 1.395.657zM31.099.657C32.119.22 33.125 0 34.117 0c.972 0 1.943.21 2.915.63.854.37 1.408 1.213 1.408 2.145 0 .45-.366.816-.817.816-.12 0-.238-.026-.346-.077-1.053-.493-2.113-.74-3.182-.74-1.074 0-2.148.25-3.222.747-.413.192-.902.012-1.093-.4-.05-.109-.076-.227-.076-.346 0-.922.548-1.754 1.395-2.118z" transform="translate(28.782 63.549)"/>
              <path d="M19.22 17.751c5.147 0 9.319-2.956 9.319-8.015-9.32-.03-11.324.146-18.638 0 0 5.06 4.172 8.015 9.319 8.015z" transform="translate(28.782 63.549) matrix(1 0 0 -1 0 27.484)"/>
            </g>
            <ellipse cx="26.453" cy="42.366" fill="#1B3554" opacity=".149" rx="3.495" ry="3.435"/>
            <ellipse cx="68.969" cy="42.366" fill="#1B3554" opacity=".149" rx="3.495" ry="3.435"/>
            <path fill-rule="nonzero" stroke="#323232" stroke-linecap="round" stroke-linejoin="round" stroke-width="1.76" d="M26.453 42.19V20.897C26.453 9.356 35.97 0 47.71 0c11.74 0 21.258 9.356 21.258 20.897V42.19"/>
          </g>
        </g>
      </g>
    </g>
  </g>
</svg>
