<svg width="16" height="16" viewBox="0 0 16 16" fill="none" xmlns="http://www.w3.org/2000/svg">
<path fill-rule="evenodd" clip-rule="evenodd" d="M10.7617 9.36427C12.4118 7.04891 12.1982 3.81373 10.1209 1.73648C7.80564 -0.578827 4.05178 -0.578826 1.73648 1.73648C-0.578826 4.05178 -0.578827 7.80564 1.73648 10.1209C3.81373 12.1982 7.04891 12.4118 9.36427 10.7617L14.3132 15.7106C14.6991 16.0965 15.3247 16.0965 15.7106 15.7106C16.0965 15.3247 16.0965 14.6991 15.7106 14.3132L10.7617 9.36427ZM8.44406 3.41338C9.83324 4.80256 9.83324 7.05488 8.44406 8.44406C7.05488 9.83324 4.80257 9.83324 3.41338 8.44406C2.0242 7.05488 2.0242 4.80256 3.41338 3.41338C4.80256 2.0242 7.05488 2.0242 8.44406 3.41338Z" fill="#A0A3BD"/>
</svg>
