<svg xmlns="http://www.w3.org/2000/svg" width="44" height="32" viewBox="0 0 44 32">
    <path d="M40.04 0H3.96C1.814 0 0 1.814 0 3.96s1.814 3.96 3.96 3.96h.44V1.76h1.76v24.992c0 2.672 2.256 4.928 4.928 4.928h21.648c2.814 0 5.104-2.29 5.104-5.104V1.76h1.76v6.16h.44c2.146 0 3.96-1.814 3.96-3.96S42.186 0 40.04 0zM17.6 23.76c0 .486-.394.88-.88.88H13.2c-.486 0-.88-.394-.88-.88v-4.4c0-.486.394-.88.88-.88h3.52c.486 0 .88.394.88.88v4.4zm8.8.88c0 .486-.393.88-.88.88s-.88-.394-.88-.88v-4.4c0-.486.393-.88.88-.88s.88.394.88.88v4.4zm0-7.92c0 .486-.393.88-.88.88s-.88-.394-.88-.88v-4.4c0-.486.393-.88.88-.88s.88.394.88.88v4.4zm0-7.92c0 .486-.393.88-.88.88s-.88-.394-.88-.88V4.4c0-.486.393-.88.88-.88s.88.394.88.88v4.4zm4.4 15.84c0 .486-.393.88-.88.88s-.88-.394-.88-.88V13.2c0-.486.393-.88.88-.88s.88.394.88.88v11.44zM17.6 12.32c0 .486-.393.88-.88.88s-.88-.394-.88-.88V1.76h1.76v10.56z"/>
</svg>
