<svg xmlns="http://www.w3.org/2000/svg" width="36" height="28" viewBox="0 0 36 28">
    <g fill="none" fill-rule="evenodd">
        <g fill="#1A1F71" fill-rule="nonzero">
            <g>
                <path d="M21.77 0C20.24 0 19 1.253 19 2.8v5.668h4.184c1.142 0 1.579 1.083 1.579 1.083l.97 4.988c-1.148-3.744-5.578-5.56-6.733-5.975V25.2c0 1.547 1.24 2.8 2.77 2.8h30.46c1.53 0 2.77-1.253 2.77-2.8V2.8C55 1.253 53.76 0 52.23 0H21.77zm19.895 8.22c1.338 0 2.704.54 2.704.54l-.468 2.43s-1.066-.71-2-.71c-1.435 0-1.937.474-1.937 1.111 0 1.247 4.005 1.45 4.005 4.247-.001 2.324-2.872 3.942-4.938 3.942-2.069 0-3.137-.637-3.137-.637l.5-2.33s1.102.64 2.772.64c1.667 0 1.899-.707 1.899-1.011 0-1.785-4-1.31-4-4.783 0-1.92 1.566-3.44 4.6-3.44zm-12.943.221h3.088L27.42 19.436h-3.18l-2.316-8.903s2.44 1.249 3.943 4.656c.065.415.217 1.08.217 1.08l2.64-7.828zm4.227 0h2.92l-1.744 10.995H31.24L32.949 8.44zm15.68 0h3.034l2.234 10.995H51.27l-.311-1.567h-3.61l-.593 1.567h-2.866L48.629 8.44zm1.09 3.172l-1.57 4.153h2.392l-.823-4.153z" transform="translate(-439 -851) translate(420 851)"/>
            </g>
        </g>
    </g>
</svg>
