<svg width="37" height="25" viewBox="0 0 37 25" fill="none" xmlns="http://www.w3.org/2000/svg">
<path fill-rule="evenodd" clip-rule="evenodd" d="M4.23047 0.34375C2.02136 0.34375 0.230469 2.13452 0.230469 4.34375V20.3438C0.230469 22.5529 2.02136 24.3438 4.23047 24.3438H32.2305C34.4396 24.3438 36.2305 22.5529 36.2305 20.3438V4.34375C36.2305 2.13452 34.4396 0.34375 32.2305 0.34375H4.23047ZM4.23047 2.34375C3.12586 2.34375 2.23047 3.23926 2.23047 4.34375V20.3438C2.23047 21.4482 3.12586 22.3438 4.23047 22.3438H32.2305C33.3351 22.3438 34.2305 21.4482 34.2305 20.3438V4.34375C34.2305 3.23926 33.3351 2.34375 32.2305 2.34375H4.23047ZM18.2305 17.3438C20.992 17.3438 23.2305 15.1052 23.2305 12.3438C23.2305 9.58228 20.992 7.34375 18.2305 7.34375C15.469 7.34375 13.2305 9.58228 13.2305 12.3438C13.2305 15.1052 15.469 17.3438 18.2305 17.3438ZM18.2305 15.3438C19.8874 15.3438 21.2305 14.0005 21.2305 12.3438C21.2305 10.687 19.8874 9.34375 18.2305 9.34375C16.5736 9.34375 15.2305 10.687 15.2305 12.3438C15.2305 14.0005 16.5736 15.3438 18.2305 15.3438ZM6.23047 4.34375H30.2305L32.2305 6.34375V18.3438L30.2305 20.3438H6.23047L4.23047 18.3438V6.34375L6.23047 4.34375ZM7.23047 6.34375H29.2305L30.2305 7.34375V17.3438L29.2305 18.3438H7.23047L6.23047 17.3438V7.34375L7.23047 6.34375Z" fill="#24252A"/>
</svg>
