<svg width="15" height="16" viewBox="0 0 15 16" fill="none" xmlns="http://www.w3.org/2000/svg">
<path d="M1.65471 1.01504C1.93971 0.960044 2.23271 1.05804 2.42471 1.27304L7.49971 6.98504L12.5757 1.27304C12.8707 0.941044 13.3837 0.907044 13.7217 1.19804C14.0597 1.48804 14.0947 1.99404 13.7987 2.32704L8.75671 8.00004L13.7987 13.673C14.0947 14.006 14.0597 14.511 13.7217 14.803C13.3837 15.093 12.8717 15.059 12.5757 14.727L7.49971 9.01504L2.42371 14.727C2.23371 14.942 1.93971 15.04 1.65471 14.985C1.36971 14.93 1.13671 14.729 1.04371 14.458C0.94971 14.188 1.00971 13.888 1.20071 13.673L6.24171 8.00004L1.20071 2.32704C1.03371 2.13804 0.96671 1.88604 1.01571 1.64404L1.04371 1.54204C1.13671 1.27204 1.36971 1.07004 1.65471 1.01504V1.01504Z" fill="black" stroke="black"/>
</svg>
