<svg width="37" height="25" viewBox="0 0 37 25" fill="none" xmlns="http://www.w3.org/2000/svg">
<path fill-rule="evenodd" clip-rule="evenodd" d="M0.230469 4.34375C0.230469 2.13461 2.02133 0.34375 4.23047 0.34375H32.2305C34.4396 0.34375 36.2305 2.13461 36.2305 4.34375V20.3438C36.2305 22.5529 34.4396 24.3438 32.2305 24.3438H4.23047C2.02133 24.3438 0.230469 22.5529 0.230469 20.3438V4.34375ZM2.23047 4.34375C2.23047 3.23918 3.1259 2.34375 4.23047 2.34375H32.2305C33.3351 2.34375 34.2305 3.23918 34.2305 4.34375V6.34375H2.23047V4.34375ZM2.23047 10.3438V20.3438C2.23047 21.4483 3.1259 22.3438 4.23047 22.3438H32.2305C33.3351 22.3438 34.2305 21.4483 34.2305 20.3438V10.3438H2.23047ZM4.23047 18.3438C4.23047 17.7915 4.67819 17.3438 5.23047 17.3438H8.23047C8.78276 17.3438 9.23047 17.7915 9.23047 18.3438C9.23047 18.896 8.78276 19.3438 8.23047 19.3438H5.23047C4.67819 19.3438 4.23047 18.896 4.23047 18.3438ZM5.23047 12.3438C4.67819 12.3438 4.23047 12.7915 4.23047 13.3438C4.23047 13.896 4.67819 14.3438 5.23047 14.3438H9.23047C9.78275 14.3438 10.2305 13.896 10.2305 13.3438C10.2305 12.7915 9.78275 12.3438 9.23047 12.3438H5.23047ZM11.2305 13.3438C11.2305 12.7915 11.6782 12.3438 12.2305 12.3438H16.2305C16.7828 12.3438 17.2305 12.7915 17.2305 13.3438C17.2305 13.896 16.7828 14.3438 16.2305 14.3438H12.2305C11.6782 14.3438 11.2305 13.896 11.2305 13.3438ZM19.2305 12.3438C18.6782 12.3438 18.2305 12.7915 18.2305 13.3438C18.2305 13.896 18.6782 14.3438 19.2305 14.3438H23.2305C23.7828 14.3438 24.2305 13.896 24.2305 13.3438C24.2305 12.7915 23.7828 12.3438 23.2305 12.3438H19.2305ZM26.2305 13.3438C26.2305 12.7915 26.6782 12.3438 27.2305 12.3438H31.2305C31.7828 12.3438 32.2305 12.7915 32.2305 13.3438C32.2305 13.896 31.7828 14.3438 31.2305 14.3438H27.2305C26.6782 14.3438 26.2305 13.896 26.2305 13.3438ZM26.2305 16.3438C25.6782 16.3438 25.2305 16.7915 25.2305 17.3438V19.3438C25.2305 19.896 25.6782 20.3438 26.2305 20.3438H31.2305C31.7828 20.3438 32.2305 19.896 32.2305 19.3438V17.3438C32.2305 16.7915 31.7828 16.3438 31.2305 16.3438H26.2305Z" fill="#24252A"/>
</svg>
