<svg width="34" height="34" viewBox="0 0 34 34" fill="none" xmlns="http://www.w3.org/2000/svg">
<path fill-rule="evenodd" clip-rule="evenodd" d="M17 0.5C7.88787 0.5 0.5 7.88787 0.5 17C0.5 26.1121 7.88787 33.5 17 33.5C26.1121 33.5 33.5 26.1121 33.5 17C33.5 7.88787 26.1121 0.5 17 0.5ZM17 3.25002C24.5818 3.25002 30.75 9.41827 30.75 17C30.75 24.5818 24.5818 30.75 17 30.75C9.41825 30.75 3.25 24.5818 3.25 17C3.25 9.41827 9.41825 3.25002 17 3.25002ZM11.5 14.25H14.25V11.9235C14.25 9.839 15.3473 8.75 17.8195 8.75H21.125V12.1875H19.1423C18.507 12.1875 18.375 12.4474 18.375 13.1046V14.25H21.125L20.8775 17H18.375V25.25H14.25V17H11.5V14.25Z" fill="white"/>
</svg>
