<svg width="19" height="13" viewBox="0 0 19 13" fill="none" xmlns="http://www.w3.org/2000/svg">
<path d="M17.5 0.5H1.5C0.947715 0.5 0.5 0.947715 0.5 1.5C0.5 2.05228 0.947715 2.5 1.5 2.5H17.5C18.0523 2.5 18.5 2.05228 18.5 1.5C18.5 0.947715 18.0523 0.5 17.5 0.5Z" fill="#5D1CD4"/>
<path d="M11.5 5.5H1.5C0.947715 5.5 0.5 5.94772 0.5 6.5C0.5 7.05228 0.947715 7.5 1.5 7.5H11.5C12.0523 7.5 12.5 7.05228 12.5 6.5C12.5 5.94772 12.0523 5.5 11.5 5.5Z" fill="#5D1CD4"/>
<path d="M7.5 10.5H1.5C0.947715 10.5 0.5 10.9477 0.5 11.5C0.5 12.0523 0.947715 12.5 1.5 12.5H7.5C8.05228 12.5 8.5 12.0523 8.5 11.5C8.5 10.9477 8.05228 10.5 7.5 10.5Z" fill="#5D1CD4"/>
</svg>
