<?xml version="1.0" encoding="UTF-8"?>
<svg width="44px" height="31px" viewBox="0 0 44 31" version="1.1" xmlns="http://www.w3.org/2000/svg" xmlns:xlink="http://www.w3.org/1999/xlink">
    <title>icn_coupon</title>
    <g id="5.1---Checkout" stroke="none" stroke-width="1" fill="none" fill-rule="evenodd">
        <path d="M39.2173913,4.08562073e-14 C41.8552994,4.08562073e-14 44,2.14470157 44,4.7826087 L44,4.7826087 L44,25.826087 C44,28.463995 41.8552994,30.6086957 39.2173913,30.6086957 L39.2173913,30.6086957 L4.7826087,30.6086957 C2.14470157,30.6086957 0,28.463995 0,25.826087 L0,25.826087 L0,4.7826087 C0,2.14470157 2.14470157,4.08562073e-14 4.7826087,4.08562073e-14 L4.7826087,4.08562073e-14 Z M31.3076923,7 L12.6923077,7 C11.7573077,7 11,7.76075 11,8.7 L11,13.1060549 C11.9840769,13.4571049 12.6923077,14.3916 12.6923077,15.5 C12.6923077,16.6084 11.9840769,17.5428951 11,17.8939451 L11,22.3 C11,23.23925 11.7573077,24 12.6923077,24 L31.3076923,24 C32.2426923,24 33,23.23925 33,22.3 L33,17.8939451 C32.0159231,17.5428951 31.3076923,16.6084 31.3076923,15.5 C31.3076923,14.3916 32.0159231,13.4571049 33,13.1060549 L33,8.7 C33,7.76075 32.2426923,7 31.3076923,7 Z M24.8838641,15.5713864 C26.2072487,15.5713864 27.0769231,16.4897451 27.0769231,17.8939451 C27.0769231,19.3057951 26.2072487,20.228125 24.8838641,20.228125 C23.5604795,20.228125 22.6908051,19.3049451 22.6908051,17.8939451 C22.6908051,16.4897451 23.5604795,15.5713864 24.8838641,15.5713864 Z M25.9762622,10.9959961 L22.5519834,15.7457027 L20.1539961,20.0040038 L18.0782749,20.0040038 L21.4480166,15.2775388 L23.9088038,10.9959961 L25.9762622,10.9959961 Z M24.8838641,16.9144527 C24.5047872,16.9144527 24.2740385,17.2759951 24.2740385,17.8939451 C24.2740385,18.5059451 24.5047872,18.8750975 24.8838641,18.8750975 C25.2570179,18.8750975 25.485427,18.5059451 25.485427,17.8939451 C25.485427,17.2691951 25.2620948,16.9144527 24.8838641,16.9144527 Z M19.1227461,10.7702149 C20.4537461,10.7702149 21.3224161,11.6884138 21.3224161,13.0994138 C21.3224161,14.5044638 20.4537461,15.4286136 19.1227461,15.4286136 C17.7993615,15.4286136 16.9230769,14.5044638 16.9230769,13.0994138 C16.9230769,11.6943638 17.7934384,10.7702149 19.1227461,10.7702149 Z M19.1227461,12.1132812 C18.7436692,12.1132812 18.514573,12.4764837 18.514573,13.0944337 C18.514573,13.7064337 18.7436692,14.0739261 19.1227461,14.0739261 C19.4958999,14.0739261 19.7259615,13.7055837 19.7259615,13.0944337 C19.7259615,12.4705337 19.5085922,12.1132812 19.1227461,12.1132812 Z" id="icn_coupon" fill="#232425" fill-rule="nonzero"></path>
    </g>
</svg>