<svg width="13" height="13" viewBox="0 0 13 13" fill="none" xmlns="http://www.w3.org/2000/svg">
<path fill-rule="evenodd" clip-rule="evenodd" d="M3.69702 12.3227L3.74153 12.2783L5.9965 9.92857C6.2042 9.7069 6.2042 9.35222 5.9965 9.13054C5.78881 8.90887 5.44759 8.90887 5.2399 9.13054L3.86021 10.564V1.03202C3.86021 0.736453 3.62284 0.5 3.32614 0.5C3.02943 0.5 2.79206 0.736453 2.79206 1.03202V10.564L1.41237 9.13054C1.20468 8.90887 0.863466 8.90887 0.655771 9.13054C0.448076 9.35222 0.448076 9.7069 0.655771 9.92857L2.94042 12.3227C3.04426 12.4261 3.17778 12.4852 3.32614 12.4852C3.47449 12.4852 3.60801 12.4261 3.69702 12.3227ZM11.5895 3.8703C11.7972 4.09198 12.1384 4.09198 12.3461 3.8703C12.5538 3.64863 12.5538 3.29395 12.3313 3.07228L10.0466 0.678187C9.94278 0.574738 9.80926 0.515625 9.66091 0.515625C9.51256 0.515625 9.37904 0.574738 9.29003 0.678187L9.26035 0.707743L9.24552 0.722522L7.00538 3.07228C6.79769 3.29395 6.79769 3.64863 7.00538 3.8703C7.21308 4.09198 7.55429 4.09198 7.76198 3.8703L9.14167 2.43681V11.9688C9.14167 12.2644 9.37904 12.5008 9.67575 12.5008C9.97245 12.5008 10.2098 12.2644 10.2098 11.9688V2.43681L11.5895 3.8703Z" fill="#5D1CD4"/>
<path d="M3.74153 12.2783L3.91801 12.4555L3.9219 12.4514L3.74153 12.2783ZM3.69702 12.3227L3.52058 12.1455L3.51378 12.1523L3.50752 12.1596L3.69702 12.3227ZM5.9965 9.92857L6.17689 10.1017L6.17894 10.0995L5.9965 9.92857ZM5.2399 9.13054L5.42004 9.30392L5.42233 9.30147L5.2399 9.13054ZM3.86021 10.564H3.61021V11.1843L4.04033 10.7374L3.86021 10.564ZM2.79206 10.564L2.61194 10.7374L3.04206 11.1843V10.564H2.79206ZM1.41237 9.13054L1.22992 9.30149L1.23225 9.30391L1.41237 9.13054ZM0.655771 9.92857L0.473328 10.0995L0.474909 10.1012L0.655771 9.92857ZM2.94042 12.3227L2.7595 12.4953L2.76398 12.4998L2.94042 12.3227ZM11.5895 3.8703L11.772 3.69936L11.7696 3.69694L11.5895 3.8703ZM12.3313 3.07228L12.1504 3.24492L12.1548 3.24939L12.3313 3.07228ZM10.0466 0.678187L10.2275 0.505537L10.2231 0.50107L10.0466 0.678187ZM9.29003 0.678187L9.46646 0.855303L9.47327 0.848526L9.47953 0.841246L9.29003 0.678187ZM9.26035 0.707743L9.08392 0.530626L9.08392 0.530626L9.26035 0.707743ZM9.24552 0.722522L9.06903 0.545346L9.06457 0.550016L9.24552 0.722522ZM7.00538 3.07228L6.82443 2.89976L6.82295 2.90134L7.00538 3.07228ZM7.76198 3.8703L7.58184 3.69693L7.57955 3.69937L7.76198 3.8703ZM9.14167 2.43681H9.39167V1.81654L8.96155 2.26344L9.14167 2.43681ZM10.2098 2.43681L10.3899 2.26344L9.95982 1.81654V2.43681H10.2098ZM3.56509 12.1012L3.52058 12.1455L3.87346 12.4998L3.91796 12.4554L3.56509 12.1012ZM5.81612 9.75547L3.56115 12.1052L3.9219 12.4514L6.17688 10.1017L5.81612 9.75547ZM5.81407 9.30147C5.93167 9.427 5.93167 9.63212 5.81407 9.75764L6.17894 10.0995C6.47672 9.78168 6.47672 9.27744 6.17894 8.95961L5.81407 9.30147ZM5.42233 9.30147C5.53125 9.18522 5.70515 9.18522 5.81407 9.30147L6.17894 8.95961C5.87246 8.63251 5.36393 8.63251 5.05746 8.95961L5.42233 9.30147ZM4.04033 10.7374L5.42002 9.30391L5.05977 8.95718L3.68008 10.3907L4.04033 10.7374ZM3.61021 1.03202V10.564H4.11021V1.03202H3.61021ZM3.32614 0.75C3.48568 0.75 3.61021 0.875431 3.61021 1.03202H4.11021C4.11021 0.597475 3.76001 0.25 3.32614 0.25V0.75ZM3.04206 1.03202C3.04206 0.875431 3.16659 0.75 3.32614 0.75V0.25C2.89227 0.25 2.54206 0.597475 2.54206 1.03202H3.04206ZM3.04206 10.564V1.03202H2.54206V10.564H3.04206ZM1.23225 9.30391L2.61194 10.7374L2.97219 10.3907L1.5925 8.95718L1.23225 9.30391ZM0.838207 9.30147C0.947125 9.18522 1.12102 9.18522 1.22994 9.30147L1.59481 8.95961C1.28834 8.63251 0.779808 8.63251 0.473336 8.95961L0.838207 9.30147ZM0.838207 9.75764C0.720598 9.63212 0.720598 9.427 0.838207 9.30147L0.473336 8.95961C0.175555 9.27744 0.175555 9.78168 0.473336 10.0995L0.838207 9.75764ZM3.12128 12.1501L0.836634 9.75598L0.474909 10.1012L2.75955 12.4953L3.12128 12.1501ZM3.32614 12.2352C3.2481 12.2352 3.17689 12.2054 3.11685 12.1455L2.76398 12.4998C2.91164 12.6469 3.10746 12.7352 3.32614 12.7352V12.2352ZM3.50752 12.1596C3.46977 12.2035 3.40767 12.2352 3.32614 12.2352V12.7352C3.54131 12.7352 3.74624 12.6487 3.88652 12.4857L3.50752 12.1596ZM12.1637 3.69937C12.0548 3.81562 11.8809 3.81562 11.7719 3.69937L11.4071 4.04124C11.7135 4.36834 12.2221 4.36834 12.5285 4.04124L12.1637 3.69937ZM12.1548 3.24939C12.2802 3.3743 12.2804 3.5748 12.1637 3.69937L12.5285 4.04124C12.8272 3.72246 12.8274 3.2136 12.5077 2.89516L12.1548 3.24939ZM9.86577 0.850781L12.1504 3.24487L12.5121 2.89968L10.2275 0.505592L9.86577 0.850781ZM9.66091 0.765625C9.73895 0.765625 9.81015 0.795494 9.87019 0.855303L10.2231 0.50107C10.0754 0.353982 9.87958 0.265625 9.66091 0.265625V0.765625ZM9.47953 0.841246C9.51728 0.797378 9.57938 0.765625 9.66091 0.765625V0.265625C9.44573 0.265625 9.2408 0.352098 9.10052 0.515127L9.47953 0.841246ZM9.43679 0.88486L9.46646 0.855303L9.11359 0.50107L9.08392 0.530626L9.43679 0.88486ZM9.42196 0.899638L9.43679 0.88486L9.08392 0.530626L9.06908 0.545405L9.42196 0.899638ZM7.18633 3.24478L9.42647 0.895027L9.06457 0.550016L6.82443 2.89977L7.18633 3.24478ZM7.18782 3.69937C7.07021 3.57385 7.07021 3.36873 7.18782 3.24321L6.82295 2.90134C6.52516 3.21917 6.52516 3.72341 6.82295 4.04124L7.18782 3.69937ZM7.57955 3.69937C7.47063 3.81562 7.29673 3.81562 7.18782 3.69937L6.82295 4.04124C7.12942 4.36834 7.63795 4.36834 7.94442 4.04124L7.57955 3.69937ZM8.96155 2.26344L7.58186 3.69694L7.94211 4.04367L9.3218 2.61017L8.96155 2.26344ZM9.39167 11.9688V2.43681H8.89167V11.9688H9.39167ZM9.67575 12.2508C9.5162 12.2508 9.39167 12.1254 9.39167 11.9688H8.89167C8.89167 12.4034 9.24188 12.7508 9.67575 12.7508V12.2508ZM9.95982 11.9688C9.95982 12.1254 9.83529 12.2508 9.67575 12.2508V12.7508C10.1096 12.7508 10.4598 12.4034 10.4598 11.9688H9.95982ZM9.95982 2.43681V11.9688H10.4598V2.43681H9.95982ZM11.7696 3.69694L10.3899 2.26344L10.0297 2.61017L11.4094 4.04367L11.7696 3.69694Z" fill="#5D1CD4"/>
</svg>
