<svg width="19" height="19" viewBox="0 0 19 19" fill="none" xmlns="http://www.w3.org/2000/svg">
<path d="M2.00244 1.00171C2.00244 1.55399 1.55473 2.00171 1.00244 2.00171C0.450157 2.00171 0.00244211 1.55399 0.00244211 1.00171C0.00244211 0.449424 0.450157 0.00170898 1.00244 0.00170898C1.55473 0.00170898 2.00244 0.449424 2.00244 1.00171Z" fill="#B1B1B1"/>
<path d="M2.00244 9.00171C2.00244 9.554 1.55473 10.0017 1.00244 10.0017C0.450157 10.0017 0.00244176 9.554 0.00244176 9.00171C0.00244176 8.44942 0.450157 8.00171 1.00244 8.00171C1.55473 8.00171 2.00244 8.44942 2.00244 9.00171Z" fill="#B1B1B1"/>
<path d="M2.00244 17.0017C2.00244 17.554 1.55473 18.0017 1.00244 18.0017C0.450157 18.0017 0.00244141 17.554 0.00244141 17.0017C0.00244141 16.4494 0.450157 16.0017 1.00244 16.0017C1.55473 16.0017 2.00244 16.4494 2.00244 17.0017Z" fill="#B1B1B1"/>
<path fill-rule="evenodd" clip-rule="evenodd" d="M5.25168 1.00112C5.25168 0.586905 5.58747 0.251119 6.00168 0.251119L18.0017 0.25112C18.4159 0.25112 18.7517 0.586906 18.7517 1.00112C18.7517 1.41533 18.4159 1.75112 18.0017 1.75112L6.00168 1.75112C5.58747 1.75112 5.25168 1.41533 5.25168 1.00112ZM5.25168 9.00112C5.25168 8.58691 5.58747 8.25112 6.00168 8.25112L18.0017 8.25112C18.4159 8.25112 18.7517 8.58691 18.7517 9.00112C18.7517 9.41534 18.4159 9.75112 18.0017 9.75112L6.00168 9.75112C5.58747 9.75112 5.25168 9.41533 5.25168 9.00112ZM5.25168 17.0011C5.25168 16.5869 5.58747 16.2511 6.00168 16.2511L18.0017 16.2511C18.4159 16.2511 18.7517 16.5869 18.7517 17.0011C18.7517 17.4153 18.4159 17.7511 18.0017 17.7511L6.00168 17.7511C5.58747 17.7511 5.25168 17.4153 5.25168 17.0011Z" fill="#B1B1B1"/>
</svg>
