<svg width="24" height="24" viewBox="0 0 24 24" fill="none" xmlns="http://www.w3.org/2000/svg">
  <path fill-rule="evenodd" clip-rule="evenodd" d="M16 9.11711C16 8.93342 15.9416 8.75385 15.8321 8.60102L12.8321 4.4143C12.4362 3.8619 11.5638 3.8619 11.1679 4.4143L8.16795 8.60102C8.05844 8.75385 8 8.93342 8 9.11711V19.0696C8 19.5835 8.44772 20 9 20H15C15.5523 20 16 19.5835 16 19.0696V9.11711ZM13 7C13 7.55228 12.5523 8 12 8C11.4477 8 11 7.55228 11 7C11 6.44772 11.4477 6 12 6C12.5523 6 13 6.44772 13 7ZM11.3333 12.6667C11.3333 13.0349 11.0349 13.3333 10.6667 13.3333C10.2985 13.3333 10 13.0349 10 12.6667C10 12.2985 10.2985 12 10.6667 12C11.0349 12 11.3333 12.2985 11.3333 12.6667ZM14 15.3333C14 15.7015 13.7015 16 13.3333 16C12.9651 16 12.6667 15.7015 12.6667 15.3333C12.6667 14.9651 12.9651 14.6667 13.3333 14.6667C13.7015 14.6667 14 14.9651 14 15.3333ZM10.0897 15.9103C9.95785 15.7784 9.97312 15.5493 10.1238 15.3986L13.3986 12.1238C13.5493 11.9731 13.7784 11.9578 13.9103 12.0897C14.0422 12.2216 14.0269 12.4507 13.8762 12.6014L10.6014 15.8762C10.4507 16.0269 10.2216 16.0422 10.0897 15.9103Z" fill="#000"/>
</svg>
