<svg xmlns="http://www.w3.org/2000/svg" width="27" height="31" viewBox="0 0 27 31">
    <g fill="none" fill-rule="evenodd">
        <g fill="#000" fill-rule="nonzero">
            <g>
                <path d="M6.984 13c-.551.009-.992.462-.984 1.014v2H4c-.36-.005-.696.184-.878.496-.182.311-.182.696 0 1.008.182.311.517.5.878.496h2v2c-.005.36.184.696.496.878.311.181.697.181 1.008 0 .312-.182.501-.518.496-.878v-2h2c.36.005.696-.185.878-.496.182-.312.182-.697 0-1.008-.182-.312-.517-.501-.878-.496H8v-2c.004-.27-.102-.53-.294-.722-.19-.19-.451-.296-.722-.292zM17 18.014c-1.121 0-1.923.73-2.438 1.652-.474-.315-.955-.652-1.562-.652-1.645 0-3 1.355-3 3v11.328c-.567-.13-1.163-.328-1.676-.328-2.095 0-3.559.685-4.375 1.738C3.133 35.805 3 37.046 3 38.014c0 .528.412.966.94.998l3.798.232 6.356 3.139c.144.071.304.107.465.103.767.291 1.57.528 2.441.528h5c3.302 0 6-2.699 6-6v-13c0-1.645-1.355-3-3-3-.444 0-.774.273-1.145.469-.033-.053-.07-.103-.113-.149-.324-1.292-1.356-2.32-2.742-2.32-.607 0-1.088.337-1.563.652-.514-.922-1.316-1.652-2.437-1.652zm0 2c.565 0 1 .435 1 1v8c-.005.36.184.696.496.878.311.181.697.181 1.008 0 .312-.182.501-.518.496-.878v-6.987-.013c0-.565.435-1 1-1s1 .435 1 1v7c-.005.36.184.696.496.878.311.181.697.181 1.008 0 .312-.182.501-.518.496-.878v-4.987-.013c0-.565.435-1 1-1s1 .435 1 1v13c0 2.22-1.78 4-4 4h-5c-.731 0-1.422-.16-2.053-.444l-.031-.011-6.473-3.198c-.12-.059-.25-.093-.382-.101l-2.819-.172c.08-.387.072-.83.29-1.111.397-.514 1.096-.963 2.792-.963.45 0 1.415.201 2.387.494.303.091.631.034.885-.155.254-.188.404-.486.404-.802V22.014c0-.565.435-1 1-1s1 .435 1 1v7c-.005.36.184.696.496.878.311.181.697.181 1.008 0 .312-.182.501-.518.496-.878v-8c0-.565.435-1 1-1zM2.984 22c-.551.009-.992.462-.984 1.014-.36-.005-.696.184-.878.496-.182.311-.182.696 0 1.008.182.311.517.5.878.496-.005.36.184.696.496.878.311.181.697.181 1.008 0 .312-.182.501-.518.496-.878.36.005.696-.185.878-.496.182-.312.182-.697 0-1.008-.182-.312-.517-.501-.878-.496.004-.27-.102-.53-.294-.722-.19-.19-.451-.296-.722-.292z" transform="translate(-29 -582) translate(28 569)"/>
            </g>
        </g>
    </g>
</svg>
