<svg width="24" height="24" viewBox="0 0 24 24" fill="none" xmlns="http://www.w3.org/2000/svg">
<path d="M7 7H5L5.86732 19.1425C5.94208 20.1891 6.81296 21 7.86224 21H16.1378C17.187 21 18.0579 20.1891 18.1327 19.1425L19 7H17L16 19H8L7 7Z" fill="white"/>
<path d="M3 8C3 7.44772 3.44772 7 4 7H20C20.5523 7 21 7.44772 21 8C21 8.55228 20.5523 9 20 9H4C3.44772 9 3 8.55228 3 8Z" fill="white"/>
<path d="M13 12C13 11.4477 13.4477 11 14 11C14.5523 11 15 11.4477 15 12V16C15 16.5523 14.5523 17 14 17C13.4477 17 13 16.5523 13 16V12Z" fill="white"/>
<path d="M9 12C9 11.4477 9.44772 11 10 11C10.5523 11 11 11.4477 11 12V16C11 16.5523 10.5523 17 10 17C9.44772 17 9 16.5523 9 16V12Z" fill="white"/>
<path d="M10 3C8.89543 3 8 3.89543 8 5V7H10V5H14V7H16V5C16 3.89543 15.1046 3 14 3H10Z" fill="white"/>
</svg>
