<svg width="14" height="16" viewBox="0 0 14 16" fill="none" xmlns="http://www.w3.org/2000/svg">
<path fill-rule="evenodd" clip-rule="evenodd" d="M7.00079 0.53125C10.4851 0.53125 13.3199 3.38751 13.3199 6.89865C13.3199 11.2148 8.37492 15.4674 7.00079 15.4674C5.62666 15.4674 0.681641 11.2148 0.681641 6.89865C0.681641 3.38751 3.51645 0.53125 7.00079 0.53125ZM7.00079 1.68019C4.1499 1.68019 1.83058 4.02172 1.83058 6.89865C1.83058 10.5592 6.13832 14.1255 7.00079 14.3154C7.86326 14.1247 12.171 10.5584 12.171 6.89865C12.171 4.02172 9.85168 1.68019 7.00079 1.68019ZM7.00156 4.36104C8.37415 4.36104 9.49092 5.4778 9.49092 6.85117C9.49092 8.22376 8.37415 9.33976 7.00156 9.33976C5.62896 9.33976 4.51219 8.22376 4.51219 6.85117C4.51219 5.4778 5.62896 4.36104 7.00156 4.36104ZM7.00156 5.50997C6.26241 5.50997 5.66113 6.11125 5.66113 6.85117C5.66113 7.59031 6.26241 8.19082 7.00156 8.19082C7.74071 8.19082 8.34198 7.59031 8.34198 6.85117C8.34198 6.11125 7.74071 5.50997 7.00156 5.50997Z" fill="#1D1D1D"/>
</svg>
