<svg xmlns="http://www.w3.org/2000/svg" width="28" height="22" viewBox="0 0 28 22">
    <g fill="none" fill-rule="evenodd">
        <g fill="#000" fill-rule="nonzero">
            <g>
                <path d="M9.674 3.478L8.369 8.171c-.304 1.094-.33 2.244-.077 3.347l.076.3 1.304 4.704H6.876c-.381 0-.69-.307-.69-.686 0-.344.255-.63.588-.678l.102-.008H8.5c-.27-.387-.51-.795-.717-1.223l-.149-.323h-3.28c-.382 0-.69-.307-.69-.686 0-.344.255-.63.588-.678l.102-.008h2.808c-.096-.375-.168-.76-.215-1.152l-.039-.394H.69c-.38 0-.69-.307-.69-.686 0-.344.255-.63.588-.678l.102-.008H6.91c.03-.397.085-.787.165-1.168l.088-.378H4.354c-.382 0-.69-.307-.69-.686 0-.344.255-.63.588-.678l.102-.008h3.281c.142-.323.386-.766.732-1.33l.135-.216H6.876c-.381 0-.69-.307-.69-.686 0-.344.255-.63.588-.678l.102-.008h2.798zM4.052 15.15c.382 0 .69.307.69.686 0 .344-.255.63-.588.678l-.102.008H2.876c-.381 0-.69-.307-.69-.686 0-.344.255-.63.588-.678l.102-.008h1.176zm12.576-9.857c.6 0 1.087.487 1.087 1.087v3.412h2.04c.6 0 1.087.487 1.087 1.087s-.487 1.087-1.087 1.087h-3.127c-.6 0-1.087-.487-1.087-1.087V6.38c0-.6.487-1.087 1.087-1.087zM4.052 3.478c.381 0 .69.307.69.686 0 .344-.255.63-.588.678l-.102.008H2.876c-.381 0-.69-.307-.69-.686 0-.344.255-.63.588-.678l.102-.008h1.176z" transform="translate(-35 -668) translate(35 669)"/>
                <path stroke="#000" stroke-width=".1" d="M17.063.03c-5.503 0-9.98 4.477-9.98 9.98 0 5.504 4.477 9.982 9.98 9.982 5.504 0 9.982-4.479 9.982-9.983 0-5.502-4.478-9.979-9.982-9.979h0zm0 17.788c-4.304 0-7.805-3.503-7.805-7.809 0-4.303 3.501-7.805 7.805-7.805 4.305 0 7.808 3.501 7.808 7.805 0 4.306-3.503 7.809-7.808 7.809h0z" transform="translate(-35 -668) translate(35 669)"/>
            </g>
        </g>
    </g>
</svg>
