<svg xmlns="http://www.w3.org/2000/svg" width="21" height="18" viewBox="0 0 21 18">
    <g fill="none" fill-rule="evenodd">
        <g fill="#000" fill-rule="nonzero">
            <g>
                <g>
                    <g>
                        <path d="M3.894 1c-.023 0-.045.002-.068.005-.335.038-.586.32-.58.651v.591H.59C.255 2.28 0 2.558 0 2.89v12.635c-.001.356.291.646.654.647h10.428C11.949 17.847 13.716 19 15.754 19 18.642 19 21 16.688 21 13.85c0-2.28-1.523-4.221-3.618-4.898V2.89c0-.022-.002-.043-.004-.065-.035-.328-.316-.577-.651-.578h-2.592v-.59c.003-.186-.075-.364-.215-.489-.14-.124-.328-.184-.516-.163-.335.038-.587.32-.581.651v.591H4.558v-.59c.003-.175-.066-.343-.19-.467-.126-.123-.297-.192-.474-.19zM1.313 3.537h1.932v.586c-.005.233.119.452.324.57.205.119.46.119.665 0 .205-.118.33-.337.324-.57v-.586h8.265v.586c-.006.234.118.452.323.57.206.119.46.119.665 0 .205-.118.33-.336.324-.57v-.586h1.933v2.262H1.313V3.537zm0 3.552h14.755v1.62c-.102-.006-.203-.015-.306-.015h-.008c-.903 0-1.753.226-2.496.623-.148.08-.293.167-.433.26-.836.557-1.502 1.345-1.9 2.27-.2.462-.333.957-.387 1.476-.017.173-.026.349-.026.526 0 .354.038.7.107 1.033H1.313V7.09zm14.44 2.895c.14 0 .28.007.42.022.14.015.277.039.414.068l.032.005c1.76.386 3.069 1.922 3.069 3.77 0 2.142-1.755 3.861-3.934 3.861-1.632 0-3.024-.964-3.62-2.348-.006-.025-.014-.05-.024-.075-.14-.343-.23-.703-.267-1.07-.012-.122-.019-.244-.019-.367 0-.134.007-.267.02-.397.2-1.954 1.867-3.47 3.91-3.47zm-.173 1.504c-.361.006-.65.297-.645.652v2.7c.001.354.293.64.654.642h1.54c.238.005.46-.117.58-.318.121-.202.121-.452 0-.654-.12-.201-.342-.323-.58-.318h-.882V12.14c.002-.174-.067-.342-.193-.465s-.297-.19-.474-.187z" transform="translate(-214 -671) translate(24 615) translate(173 40) translate(17 15)"/>
                    </g>
                </g>
            </g>
        </g>
    </g>
</svg>
