<svg xmlns="http://www.w3.org/2000/svg" width="24" height="24" viewBox="0 0 24 24">
    <g fill="none" fill-rule="evenodd">
        <g fill="#000" fill-rule="nonzero">
            <g>
                <g>
                    <path d="M23.333 0H4.667C4.298 0 4 .298 4 .667V4H.667C.298 4 0 4.298 0 4.667v16.666C.002 22.805 1.195 23.998 2.667 24h18c1.84-.002 3.331-1.493 3.333-3.333v-20C24 .298 23.702 0 23.333 0zm-22 21.333v-16H4v16c0 .737-.597 1.334-1.333 1.334-.737 0-1.334-.597-1.334-1.334zm21.334-.666c-.002 1.104-.896 1.998-2 2H4.962c.24-.404.369-.864.371-1.334v-20h17.334v19.334z" transform="translate(-16 -473) translate(0 381) translate(16 92)"/>
                    <path d="M8.667 5.333h10.666c.369 0 .667-.298.667-.666 0-.369-.298-.667-.667-.667H8.667C8.298 4 8 4.298 8 4.667c0 .368.298.666.667.666zM8.667 9.333h10.666c.369 0 .667-.298.667-.666 0-.369-.298-.667-.667-.667H8.667C8.298 8 8 8.298 8 8.667c0 .368.298.666.667.666zM8.667 13.333h10.666c.369 0 .667-.298.667-.666 0-.369-.298-.667-.667-.667H8.667c-.369 0-.667.298-.667.667 0 .368.298.666.667.666zM8.667 17.333h10.666c.369 0 .667-.298.667-.666 0-.369-.298-.667-.667-.667H8.667c-.369 0-.667.298-.667.667 0 .368.298.666.667.666z" transform="translate(-16 -473) translate(0 381) translate(16 92)"/>
                </g>
            </g>
        </g>
    </g>
</svg>
