<svg width="20" height="20" viewBox="0 0 20 20" fill="none" xmlns="http://www.w3.org/2000/svg">
<path fill-rule="evenodd" clip-rule="evenodd" d="M2.00098 1.75049C1.86291 1.75049 1.75098 1.86242 1.75098 2.00049L1.75098 7.00049C1.75098 7.13856 1.86291 7.25049 2.00098 7.25049L7.00098 7.25049C7.13905 7.25049 7.25098 7.13856 7.25098 7.00049L7.25098 2.00049C7.25098 1.86242 7.13905 1.75049 7.00098 1.75049L2.00098 1.75049ZM0.250977 2.00049C0.250977 1.03399 1.03448 0.250488 2.00098 0.250488L7.00098 0.250489C7.96748 0.250489 8.75098 1.03399 8.75098 2.00049L8.75098 7.00049C8.75098 7.96699 7.96747 8.75049 7.00098 8.75049L2.00098 8.75049C1.03448 8.75049 0.250977 7.96699 0.250977 7.00049L0.250977 2.00049ZM13.001 1.75049C12.8629 1.75049 12.751 1.86242 12.751 2.00049L12.751 7.00049C12.751 7.13856 12.8629 7.25049 13.001 7.25049L18.001 7.25049C18.139 7.25049 18.251 7.13856 18.251 7.00049L18.251 2.00049C18.251 1.86242 18.139 1.75049 18.001 1.75049L13.001 1.75049ZM11.251 2.00049C11.251 1.03399 12.0345 0.250488 13.001 0.250488L18.001 0.250489C18.9675 0.250489 19.751 1.03399 19.751 2.00049L19.751 7.00049C19.751 7.96699 18.9675 8.75049 18.001 8.75049L13.001 8.75049C12.0345 8.75049 11.251 7.96699 11.251 7.00049L11.251 2.00049ZM2.00098 12.7505C1.86291 12.7505 1.75098 12.8624 1.75098 13.0005L1.75098 18.0005C1.75098 18.1386 1.86291 18.2505 2.00098 18.2505L7.00098 18.2505C7.13905 18.2505 7.25098 18.1386 7.25098 18.0005L7.25098 13.0005C7.25098 12.8624 7.13905 12.7505 7.00098 12.7505L2.00098 12.7505ZM0.250977 13.0005C0.250977 12.034 1.03448 11.2505 2.00098 11.2505L7.00098 11.2505C7.96748 11.2505 8.75098 12.034 8.75098 13.0005L8.75098 18.0005C8.75098 18.967 7.96747 19.7505 7.00098 19.7505L2.00098 19.7505C1.03448 19.7505 0.250977 18.967 0.250977 18.0005L0.250977 13.0005ZM13.001 12.7505C12.8629 12.7505 12.751 12.8624 12.751 13.0005L12.751 18.0005C12.751 18.1386 12.8629 18.2505 13.001 18.2505L18.001 18.2505C18.139 18.2505 18.251 18.1386 18.251 18.0005L18.251 13.0005C18.251 12.8624 18.139 12.7505 18.001 12.7505L13.001 12.7505ZM11.251 13.0005C11.251 12.034 12.0345 11.2505 13.001 11.2505L18.001 11.2505C18.9675 11.2505 19.751 12.034 19.751 13.0005L19.751 18.0005C19.751 18.967 18.9675 19.7505 18.001 19.7505L13.001 19.7505C12.0345 19.7505 11.251 18.967 11.251 18.0005L11.251 13.0005Z" fill="#B1B1B1"/>
</svg>
