<svg xmlns="http://www.w3.org/2000/svg" width="14" height="14" viewBox="0 0 14 14">
    <g fill="none" fill-rule="evenodd">
        <g fill="#000">
            <g>
                <g>
                    <path d="M0 7c0 3.866 3.134 7 7 7s7-3.134 7-7-3.134-7-7-7-7 3.134-7 7zm7.412-2.746l3.5 3.5c.114.114.171.263.171.413 0 .149-.057.298-.17.412-.229.228-.597.228-.825 0L7 5.491 3.912 8.58c-.228.228-.596.228-.824 0-.228-.228-.228-.597 0-.825l3.5-3.5c.228-.228.596-.228.824 0z" transform="translate(-345 -1064) translate(0 1044) matrix(0 -1 -1 0 359 34)"/>
                </g>
            </g>
        </g>
    </g>
</svg>
