<svg xmlns="http://www.w3.org/2000/svg" width="36" height="36" viewBox="0 0 36 36">
    <g fill="none" fill-rule="evenodd">
        <g>
            <g>
                <path d="M0 0H36V36H0z" transform="translate(-543 -2) translate(543 2)"/>
                <path fill="#e0e0de" fill-rule="nonzero" d="M18 25.631c.105 0 .208.027.3.079l5.83 3.216c.208.114.46.095.65-.05.19-.145.285-.39.245-.633l-1.113-6.812c-.036-.22.033-.445.186-.6l4.716-4.825c.168-.172.228-.43.156-.664-.073-.234-.265-.405-.498-.44l-6.517-.994c-.211-.032-.393-.17-.487-.371l-2.915-6.199C18.44 7.13 18.229 7 18 7c-.229 0-.44.13-.553.338l-2.915 6.198c-.094.2-.276.34-.487.372l-6.517.993c-.233.036-.425.207-.498.441-.072.235-.012.492.156.664l4.716 4.824c.152.156.222.38.186.601l-1.113 6.812c-.04.243.055.488.245.633.19.145.442.164.65.05l5.829-3.216c.093-.052.196-.079.301-.079z" opacity=".8" transform="translate(-543 -2) translate(543 2)"/>
            </g>
        </g>
    </g>
</svg>
