<svg xmlns="http://www.w3.org/2000/svg" width="26" height="26" viewBox="0 0 26 26">
    <g fill="none" fill-rule="evenodd">
        <g stroke="#000" stroke-width="1.286">
            <g>
                <g>
                    <path d="M399.359 18.003c-.067.007-.132.025-.192.055l-22.832 10.83c-.21.099-.34.312-.335.543.006.232.148.438.362.526l8.26 3.421 3.421 8.26c.089.214.295.356.527.362.231.006.444-.125.544-.335l10.83-22.83c.09-.19.07-.414-.05-.586-.122-.172-.326-.266-.535-.246z" transform="translate(-515 -493) translate(140 420) translate(0 56)"/>
                </g>
            </g>
        </g>
    </g>
</svg>
