<svg xmlns="http://www.w3.org/2000/svg" width="26" height="24" viewBox="0 0 26 24">
    <g fill="none" fill-rule="evenodd">
        <g fill="#000" fill-rule="nonzero">
            <path d="M298.545 54C294.39 54 291 57.39 291 61.545c0 3.738 2.9 7.54 5.66 10.574 2.76 3.034 5.512 5.25 5.512 5.25l.025.02c.446.336 1.005.555 1.612.595.063.012.127.017.191.016.064 0 .127-.005.19-.016l.01-.002c.603-.042 1.16-.259 1.603-.594l.025-.019s2.752-2.216 5.512-5.25S317 65.283 317 61.545c0-4.155-3.39-7.545-7.545-7.545-2.614 0-4.465 1.439-5.455 2.457-.99-1.018-2.841-2.457-5.455-2.457z" transform="translate(-291 -54)"/>
        </g>
    </g>
</svg>
