<svg xmlns="http://www.w3.org/2000/svg" width="22" height="22" viewBox="0 0 22 22">
    <g fill="none">
        <path stroke="#000" d="M10 0C4.477 0 0 4.477 0 10s4.477 10 10 10 10-4.477 10-10C19.994 4.48 15.52.006 10 0z" transform="matrix(1 0 0 -1 1 21)"/>
        <path fill="#000" stroke="#000" d="M13.124 11.829L10 8.259l-3.124 3.57c-.117.134-.298.196-.473.161-.175-.034-.319-.16-.376-.329-.058-.169-.021-.356.097-.49l3.5-4C9.718 7.062 9.856 7 10 7s.282.062.376.17l3.5 4c.182.209.161.524-.047.706-.208.182-.524.16-.705-.047h0z" transform="matrix(1 0 0 -1 1 21)"/>
    </g>
</svg>
