<svg width="10" height="10" viewBox="0 0 10 10" fill="none" xmlns="http://www.w3.org/2000/svg">
<path fill-rule="evenodd" clip-rule="evenodd" d="M0.120117 7.90625C0.120117 7.28493 0.623797 6.78125 1.24512 6.78125H8.74512C9.36644 6.78125 9.87012 7.28493 9.87012 7.90625C9.87012 8.52757 9.36644 9.03125 8.74512 9.03125H1.24512C0.623797 9.03125 0.120117 8.52757 0.120117 7.90625ZM1.24512 7.53125C1.03801 7.53125 0.870117 7.69914 0.870117 7.90625C0.870117 8.11336 1.03801 8.28125 1.24512 8.28125H8.74512C8.95222 8.28125 9.12012 8.11336 9.12012 7.90625C9.12012 7.69914 8.95222 7.53125 8.74512 7.53125H1.24512Z" fill="white"/>
<path fill-rule="evenodd" clip-rule="evenodd" d="M3.62012 1.87148V1.65625C3.62012 0.896859 4.23573 0.28125 4.99512 0.28125C5.75451 0.28125 6.37012 0.896859 6.37012 1.65625V1.87145C6.48734 1.90906 6.60315 1.95153 6.71725 1.99879C7.26321 2.22494 7.75929 2.55641 8.17715 2.97427C8.59501 3.39213 8.92648 3.88821 9.15263 4.43417C9.31485 4.82582 9.4206 5.23763 9.46742 5.65727C9.49804 5.93171 9.27131 6.15625 8.99517 6.15625L0.99517 6.15625C0.719028 6.15625 0.4923 5.93171 0.522919 5.65728C0.56974 5.23763 0.675489 4.82582 0.837712 4.43417C1.06386 3.88821 1.39533 3.39213 1.81319 2.97427C2.23105 2.55641 2.72713 2.22494 3.27309 1.99879C3.38716 1.95154 3.50294 1.90909 3.62012 1.87148ZM4.37012 1.65625C4.37012 1.31107 4.64994 1.03125 4.99512 1.03125C5.34029 1.03125 5.62012 1.31107 5.62012 1.65625V1.69986C5.41352 1.67088 5.20471 1.65625 4.99517 1.65625C4.78559 1.65625 4.57675 1.67089 4.37012 1.69987V1.65625ZM4.05048 2.52719C4.07494 2.52357 4.09863 2.51759 4.1213 2.50949C4.40687 2.44106 4.70016 2.40625 4.99517 2.40625C5.29007 2.40625 5.58325 2.44103 5.86872 2.50941C5.89153 2.51758 5.91538 2.5236 5.94 2.52723C6.10663 2.57061 6.27045 2.62552 6.43023 2.6917C6.8852 2.88016 7.2986 3.15638 7.64682 3.5046C7.99504 3.85282 8.27126 4.26622 8.45972 4.72119C8.55154 4.94286 8.62165 5.17229 8.6694 5.40625L1.32094 5.40625C1.36869 5.17229 1.4388 4.94286 1.53062 4.72119C1.71908 4.26622 1.9953 3.85282 2.34352 3.5046C2.69174 3.15638 3.10514 2.88016 3.56011 2.6917C3.71994 2.6255 3.8838 2.57058 4.05048 2.52719Z" fill="white"/>
<path fill-rule="evenodd" clip-rule="evenodd" d="M4.62582 3.34621C4.62625 3.13911 4.79448 2.97155 5.00159 2.97197C5.46298 2.97291 5.91865 3.07411 6.33707 3.26855C6.75549 3.463 7.12666 3.74605 7.42488 4.09811C7.55874 4.25614 7.53914 4.49277 7.38111 4.62663C7.22308 4.7605 6.98645 4.7409 6.85259 4.58287C6.62461 4.31373 6.34087 4.09734 6.021 3.9487C5.70113 3.80005 5.35278 3.72269 5.00006 3.72197C4.79296 3.72155 4.6254 3.55332 4.62582 3.34621Z" fill="white"/>
</svg>
