<svg width="20" height="20" viewBox="0 0 20 20" fill="none" xmlns="http://www.w3.org/2000/svg">
<path d="M14 7C13.4477 7 13 6.55228 13 6C13 5.44772 13.4477 5 14 5C14.5523 5 15 5.44772 15 6C15 6.55228 14.5523 7 14 7Z" fill="#000"/>
<path fill-rule="evenodd" clip-rule="evenodd" d="M17 0.25C18.5188 0.25 19.75 1.48122 19.75 3V9.17157C19.75 9.90092 19.4603 10.6004 18.9445 11.1161L10.9445 19.1161C9.87061 20.1901 8.1294 20.1901 7.05546 19.1161L0.883888 12.9445C-0.190054 11.8706 -0.190058 10.1294 0.883887 9.05546L8.88389 1.05546C9.39961 0.539731 10.0991 0.25 10.8284 0.25H17ZM18.25 3C18.25 2.30964 17.6904 1.75 17 1.75H10.8284C10.4969 1.75 10.179 1.8817 9.94455 2.11612L1.94455 10.1161C1.45639 10.6043 1.45639 11.3957 1.94455 11.8839L8.11612 18.0555C8.60428 18.5436 9.39573 18.5436 9.88389 18.0555L17.8839 10.0555C18.1183 9.82104 18.25 9.50309 18.25 9.17157V3Z" fill="#000"/>
</svg>
