<svg width="15" height="15" viewBox="0 0 15 15" fill="none" xmlns="http://www.w3.org/2000/svg">
<path fill-rule="evenodd" clip-rule="evenodd" d="M9.33706 1.6131C8.56402 1.37181 7.75103 1.28514 6.9445 1.35805C6.13797 1.43096 5.3537 1.66201 4.63646 2.03801C3.91923 2.41401 3.28307 2.9276 2.76432 3.54946C2.24557 4.17131 1.85439 4.88925 1.6131 5.66229C1.37181 6.43533 1.28514 7.24832 1.35805 8.05485C1.43096 8.86138 1.66201 9.64565 2.03801 10.3629C2.41401 11.0801 2.9276 11.7163 3.54946 12.235C4.17131 12.7538 4.88926 13.145 5.66229 13.3863C6.43533 13.6275 7.24832 13.7142 8.05485 13.6413C8.86138 13.5684 9.64565 13.3373 10.3629 12.9613C11.0801 12.5853 11.7163 12.0717 12.235 11.4499C12.7538 10.828 13.145 10.1101 13.3863 9.33706C13.6275 8.56402 13.7142 7.75103 13.6413 6.9445C13.5684 6.13797 13.3373 5.3537 12.9613 4.63646C12.5853 3.91923 12.0717 3.28307 11.4499 2.76432C10.828 2.24557 10.1101 1.85439 9.33706 1.6131ZM6.85447 0.362111C7.79179 0.277382 8.73662 0.3781 9.63501 0.658517C10.5334 0.938933 11.3678 1.39356 12.0905 1.99643C12.8132 2.5993 13.41 3.33861 13.847 4.17216C14.284 5.0057 14.5525 5.91715 14.6372 6.85447C14.722 7.79179 14.6213 8.73662 14.3408 9.63501C14.0604 10.5334 13.6058 11.3678 13.0029 12.0905C12.4001 12.8132 11.6607 13.41 10.8272 13.847C9.99365 14.284 9.0822 14.5525 8.14488 14.6372C7.20756 14.722 6.26273 14.6212 5.36434 14.3408C4.46594 14.0604 3.63158 13.6058 2.90888 13.0029C2.18619 12.4 1.58931 11.6607 1.15233 10.8272C0.715358 9.99365 0.44684 9.08219 0.362111 8.14488C0.277381 7.20756 0.378101 6.26273 0.658517 5.36434C0.938934 4.46594 1.39356 3.63158 1.99643 2.90888C2.5993 2.18618 3.33861 1.58931 4.17216 1.15233C5.0057 0.715358 5.91716 0.44684 6.85447 0.362111ZM7.49968 3.66634C7.77582 3.66634 7.99968 3.8902 7.99968 4.16634V7.29257L9.18656 8.47945C9.38182 8.67472 9.38182 8.9913 9.18656 9.18656C8.9913 9.38182 8.67472 9.38182 8.47946 9.18656L6.99968 7.70678V4.16634C6.99968 3.8902 7.22353 3.66634 7.49968 3.66634Z" fill="#FFF"/>
</svg>
