<svg width="14" height="14" viewBox="0 0 14 14" fill="none" xmlns="http://www.w3.org/2000/svg">
<path d="M6.9987 13.6673C3.3167 13.6673 0.332031 10.6827 0.332031 7.00065C0.332031 3.31865 3.3167 0.333984 6.9987 0.333984C10.6807 0.333984 13.6654 3.31865 13.6654 7.00065C13.6654 10.6827 10.6807 13.6673 6.9987 13.6673ZM6.9987 12.334C8.41319 12.334 9.76974 11.7721 10.7699 10.7719C11.7701 9.77169 12.332 8.41514 12.332 7.00065C12.332 5.58616 11.7701 4.22961 10.7699 3.22941C9.76974 2.22922 8.41319 1.66732 6.9987 1.66732C5.58421 1.66732 4.22766 2.22922 3.22746 3.22941C2.22727 4.22961 1.66536 5.58616 1.66536 7.00065C1.66536 8.41514 2.22727 9.77169 3.22746 10.7719C4.22766 11.7721 5.58421 12.334 6.9987 12.334ZM6.33203 4.33398C6.33203 3.96579 6.63051 3.66732 6.9987 3.66732C7.36689 3.66732 7.66536 3.96579 7.66536 4.33398C7.66536 4.70217 7.36689 5.00065 6.9987 5.00065C6.63051 5.00065 6.33203 4.70217 6.33203 4.33398ZM6.33203 7.00065C6.33203 6.63246 6.63051 6.33398 6.9987 6.33398C7.36689 6.33398 7.66536 6.63246 7.66536 7.00065V9.66732C7.66536 10.0355 7.36689 10.334 6.9987 10.334C6.63051 10.334 6.33203 10.0355 6.33203 9.66732V7.00065Z" fill="#C4AAF4"/>
</svg>
