<svg xmlns="http://www.w3.org/2000/svg" width="26" height="24" viewBox="0 0 26 24">
    <g fill="none" fill-rule="evenodd">
        <g fill="#000" fill-rule="nonzero">
            <path d="M298.545 54C294.39 54 291 57.39 291 61.545c0 3.738 2.9 7.54 5.66 10.574 2.76 3.034 5.512 5.25 5.512 5.25l.025.02c.446.336 1.005.555 1.612.595.063.012.127.017.191.016.064 0 .127-.005.19-.016l.01-.002c.603-.042 1.16-.259 1.603-.594l.025-.019s2.752-2.216 5.512-5.25S317 65.283 317 61.545c0-4.155-3.39-7.545-7.545-7.545-2.614 0-4.465 1.439-5.455 2.457-.99-1.018-2.841-2.457-5.455-2.457zm0 2c2.731 0 4.393 2.242 4.559 2.475.172.332.516.54.89.539h.024l.023-.002.076-.006c.33-.036.62-.234.776-.528.157-.22 1.823-2.478 4.562-2.478 3.075 0 5.545 2.47 5.545 5.545 0 2.603-2.5 6.325-5.14 9.228-2.632 2.894-5.252 5.007-5.27 5.022-.176.13-.37.205-.59.205-.22 0-.414-.075-.59-.205-.018-.015-2.638-2.128-5.27-5.022-2.64-2.903-5.14-6.625-5.14-9.228 0-3.075 2.47-5.545 5.545-5.545z" transform="translate(-291 -54)"/>
        </g>
    </g>
</svg>
