<svg xmlns="http://www.w3.org/2000/svg" width="30" height="30" viewBox="0 0 30 30">
    <g fill="none" fill-rule="evenodd">
        <g fill="#000" fill-rule="nonzero">
            <g>
                <path d="M9.313 13.612c.312 0 .624.245.624.612v7.286c0 2.082-1.312 3.796-3.187 4.53l.625 14.511c0 .612-.25 1.225-.688 1.714-.437.49-1.062.735-1.75.735-.625 0-1.25-.245-1.75-.735-.437-.49-.687-1.102-.624-1.714l.624-14.51C1.313 25.306 0 23.59 0 21.51v-7.287c0-.367.25-.612.625-.612s.625.245.625.612v6.674h1.625v-6.674c0-.367.25-.612.625-.612s.625.245.625.612v6.674h1.688v-6.674c0-.367.25-.612.625-.612s.625.245.625.612v6.674h1.625v-6.674c0-.367.25-.612.624-.612zm15.124.061c.25-.122.5-.06.688.062C28.25 16.122 30 19.673 30 23.53v8.632c0 .368-.25.613-.625.613h-1.063v9.612c0 .367-.25.612-.625.612h-3c-.375 0-.625-.245-.625-.612V14.224c0-.244.188-.428.375-.55zM16 13.613c2.438 0 4.375 2.816 4.375 6.428 0 2.571-1 4.898-2.563 5.877l.625 14.572c0 .612-.25 1.224-.687 1.714-.438.49-1.063.735-1.75.735-.688 0-1.313-.245-1.75-.735-.5-.428-.75-1.04-.688-1.714l.626-14.572c-1.563-.98-2.563-3.306-2.563-5.877 0-3.612 1.938-6.429 4.375-6.429zm11.125 19.163h-1.75v9h1.75v-9zm-11.063-17.94c-1.687 0-3.125 2.388-3.125 5.205 0 2.326.938 4.347 2.25 5.02.188.061.313.306.313.551l-.625 14.939c0 .306.063.612.313.857.437.429 1.25.429 1.687 0 .188-.245.313-.55.313-.857l-.625-14.939c-.063-.245.125-.428.312-.55 1.313-.674 2.25-2.756 2.313-5.021 0-2.817-1.438-5.204-3.125-5.204zm-10.5 11.45c-.187.06-.375.06-.562.06-.188 0-.375-.06-.563-.06L3.813 40.55c0 .306.063.612.313.857.438.429 1.25.429 1.688 0 .187-.184.312-.49.375-.857zM25.375 15.57v15.98h3.375v-8.02c0-3-1.188-5.878-3.375-7.96zm-16.75 6.551H1.312c.25 1.715 1.813 3 3.625 3 1.875 0 3.375-1.346 3.688-3z" transform="translate(-29 -1537) translate(29 1524)"/>
            </g>
        </g>
    </g>
</svg>
