<svg width="34" height="34" viewBox="0 0 34 34" fill="none" xmlns="http://www.w3.org/2000/svg">
<path fill-rule="evenodd" clip-rule="evenodd" d="M17 0.5C7.88787 0.5 0.5 7.88787 0.5 17C0.5 26.1121 7.88787 33.5 17 33.5C26.1121 33.5 33.5 26.1121 33.5 17C33.5 7.88787 26.1121 0.5 17 0.5ZM17 3.25002C24.5818 3.25002 30.75 9.41827 30.75 17C30.75 24.5818 24.5818 30.75 17 30.75C9.41825 30.75 3.25 24.5818 3.25 17C3.25 9.41827 9.41825 3.25002 17 3.25002ZM20.2257 17.0743C20.2257 18.859 18.7751 20.311 16.989 20.311C15.2056 20.311 13.7536 18.859 13.7522 17.0743C13.7522 16.1049 14.1826 15.2359 14.8591 14.6419C15.0956 14.4343 15.3637 14.2596 15.6539 14.1276C16.0609 13.942 16.5119 13.8389 16.989 13.8389C17.4647 13.8389 17.9157 13.942 18.3241 14.1276C18.6156 14.2596 18.8824 14.4343 19.1216 14.6419C19.7967 15.2359 20.2257 16.1063 20.2257 17.0743ZM17 14.6832C18.3214 14.6832 19.3897 15.7529 19.3897 17.0743C19.3897 18.3957 18.3214 19.4668 17 19.4668C15.6786 19.4668 14.6103 18.3957 14.6103 17.0743C14.6103 15.7543 15.6786 14.6832 17 14.6832ZM25.25 14.9375H20.5901C20.9641 15.5659 21.1896 16.2919 21.1896 17.0742C21.1896 19.3939 19.3086 21.2749 16.989 21.2749C14.668 21.2749 12.7884 19.3953 12.7884 17.0742C12.7884 16.2919 13.0153 15.5659 13.3879 14.9375H8.75V22.0036C8.75 23.7966 10.246 25.25 12.0404 25.25H22.0036C23.7952 25.25 25.25 23.7966 25.25 22.0036V14.9375ZM22.0036 8.75H13.5625V12.1875H12.875V8.75H12.1875V12.1875H11.5V8.80363C11.2607 8.84212 11.0311 8.90125 10.8125 8.98787V12.1875H10.125V9.36738C9.29725 9.95588 8.75 10.9115 8.75 11.9964V14.25H13.887C14.69 13.3673 15.8106 12.875 16.989 12.875C18.1715 12.875 19.2921 13.3728 20.0896 14.25H25.25V11.995C25.25 10.2034 23.7952 8.75 22.0036 8.75ZM23.3621 12.875C23.6467 12.875 23.875 12.6481 23.875 12.369V10.6296C23.875 10.3519 23.6467 10.125 23.3621 10.125H21.6365C21.3546 10.125 21.125 10.3519 21.125 10.6296V12.369C21.125 12.6481 21.3546 12.875 21.6365 12.875H23.3621Z" fill="white"/>
</svg>
