<svg xmlns="http://www.w3.org/2000/svg" width="20" height="24" viewBox="0 0 20 24">
    <g fill="none" fill-rule="evenodd">
        <g fill="#000">
            <g>
                <g>
                    <path d="M10 6C4.477 6 0 10.379 0 15.78c0 6.432 6.502 9.511 7.316 10.228.832.732 1.52 2.372 1.797 3.302.134.452.512.68.887.69.375-.01.753-.24.887-.69.278-.93.965-2.57 1.797-3.302C13.498 25.29 20 22.212 20 15.78 20 10.38 15.523 6 10 6zm0 12.448c-1.506 0-2.727-1.194-2.727-2.668 0-1.473 1.22-2.667 2.727-2.667 1.506 0 2.727 1.194 2.727 2.667 0 1.474-1.22 2.668-2.727 2.668z" transform="translate(-442 -409) translate(400 154) translate(42 249)"/>
                </g>
            </g>
        </g>
    </g>
</svg>
