<svg xmlns="http://www.w3.org/2000/svg" width="52" height="52" viewBox="0 0 52 52">
    <g fill="none" fill-rule="evenodd">
        <g fill-rule="nonzero">
            <g transform="translate(-245 -147) translate(245 147)">
                <rect width="52" height="52" fill="#000" rx="26"/>
                <path fill="#FFF" d="M26.263 17c.983 0 2.216-.685 2.95-1.599.665-.828 1.15-1.984 1.15-3.14 0-.157-.014-.314-.042-.443-1.094.043-2.41.757-3.2 1.713-.622.728-1.19 1.87-1.19 3.04 0 .172.027.343.041.4.07.015.18.029.291.029zm-3.462 17.273c1.343 0 1.939-.928 3.614-.928 1.704 0 2.078.9 3.574.9 1.468 0 2.451-1.4 3.379-2.77 1.039-1.57 1.468-3.112 1.496-3.183-.097-.029-2.909-1.214-2.909-4.54 0-2.883 2.216-4.183 2.34-4.282-1.467-2.17-3.697-2.227-4.306-2.227-1.648 0-2.992 1.027-3.837 1.027-.914 0-2.119-.97-3.545-.97-2.715 0-5.47 2.312-5.47 6.68 0 2.713 1.024 5.582 2.285 7.438 1.08 1.57 2.022 2.855 3.379 2.855z"/>
            </g>
        </g>
    </g>
</svg>
