<svg width="61" height="61" viewBox="0 0 61 61" fill="none" xmlns="http://www.w3.org/2000/svg">
<path d="M57.378 0.000976562H3.352C1.502 0.000976562 0 1.49998 0 3.35298V57.379C0 59.232 1.502 60.733 3.352 60.733H32.438V37.214H24.524V28.047H32.438V21.287C32.438 13.444 37.227 9.17098 44.225 9.17098C47.58 9.17098 50.457 9.42198 51.296 9.53098V17.729L46.442 17.731C42.637 17.731 41.903 19.54 41.903 22.193V28.044H50.981L49.794 37.21H41.902V60.73H57.377C59.229 60.73 60.732 59.227 60.732 57.379V3.35098C60.731 1.49998 59.23 0.000976562 57.378 0.000976562Z" fill="white"/>
</svg>
