<svg xmlns="http://www.w3.org/2000/svg" width="20" height="24" viewBox="0 0 20 24">
    <g fill="none" fill-rule="evenodd">
        <g fill="#FFF" fill-rule="nonzero">
            <g>
                <g>
                    <path d="M10.094 5.832c1.032 0 2.325-.719 3.095-1.677.697-.868 1.205-2.081 1.205-3.294 0-.165-.014-.33-.043-.464-1.148.045-2.528.793-3.356 1.797-.654.763-1.25 1.961-1.25 3.189 0 .18.03.36.044.42.073.014.189.03.305.03zM6.462 23.95c1.41 0 2.034-.973 3.792-.973 1.787 0 2.18.943 3.748.943 1.54 0 2.571-1.467 3.545-2.904 1.09-1.648 1.54-3.265 1.569-3.34-.102-.03-3.051-1.272-3.051-4.761 0-3.025 2.324-4.388 2.455-4.492-1.54-2.276-3.879-2.336-4.518-2.336-1.729 0-3.138 1.078-4.024 1.078-.959 0-2.223-1.018-3.719-1.018-2.847 0-5.738 2.425-5.738 7.007 0 2.845 1.075 5.855 2.397 7.802 1.133 1.647 2.12 2.994 3.544 2.994z" transform="translate(-919 -400) translate(900 387) translate(19 13)"/>
                </g>
            </g>
        </g>
    </g>
</svg>
