<svg xmlns="http://www.w3.org/2000/svg" width="52" height="52" viewBox="0 0 52 52">
    <g fill="none" fill-rule="evenodd">
        <g>
            <g transform="translate(-183 -147) translate(183 147)">
                <circle cx="26" cy="26" r="26" fill="#F4F4F4"/>
                <g fill-rule="nonzero">
                    <path fill="#FFC107" d="M23.767 9.65H22.8V9.6H12v4.8h6.782c-.99 2.794-3.648 4.8-6.782 4.8-3.976 0-7.2-3.224-7.2-7.2S8.024 4.8 12 4.8c1.835 0 3.505.692 4.777 1.823L20.17 3.23C18.028 1.232 15.16 0 12 0 5.373 0 0 5.373 0 12s5.373 12 12 12 12-5.373 12-12c0-.805-.083-1.59-.233-2.35z" transform="translate(14 14)"/>
                    <path fill="#FF3D00" d="M1.384 6.415l3.942 2.891C6.393 6.665 8.976 4.8 12 4.8c1.835 0 3.505.692 4.777 1.823L20.17 3.23C18.028 1.232 15.16 0 12 0 7.39 0 3.394 2.602 1.384 6.415z" transform="translate(14 14)"/>
                    <path fill="#4CAF50" d="M12 24c3.1 0 5.916-1.186 8.045-3.115l-3.714-3.143C15.127 18.655 13.63 19.2 12 19.2c-3.121 0-5.771-1.99-6.77-4.768l-3.913 3.015C3.303 21.334 7.337 24 12 24z" transform="translate(14 14)"/>
                    <path fill="#1976D2" d="M23.767 9.65H22.8V9.6H12v4.8h6.782c-.475 1.342-1.339 2.5-2.452 3.343l.001-.002 3.714 3.143C19.783 21.123 24 18 24 12c0-.805-.083-1.59-.233-2.35z" transform="translate(14 14)"/>
                </g>
            </g>
        </g>
    </g>
</svg>
