<svg xmlns="http://www.w3.org/2000/svg" width="24" height="24" viewBox="0 0 24 24">
    <g fill="none" fill-rule="evenodd">
        <g>
            <g>
                <g>
                    <path fill="#4285F4" fill-rule="nonzero" d="M23.52 12.273c0-.851-.076-1.67-.218-2.455H12v4.642h6.458c-.278 1.5-1.123 2.77-2.394 3.622v3.01h3.878c2.269-2.088 3.578-5.165 3.578-8.82z" transform="translate(-920 -330) translate(900 317) translate(20 13)"/>
                    <path fill="#34A853" fill-rule="nonzero" d="M12 24c3.24 0 5.956-1.075 7.942-2.907l-3.878-3.011c-1.075.72-2.45 1.145-4.064 1.145-3.125 0-5.77-2.11-6.715-4.947H1.276v3.11C3.251 21.31 7.31 24 12 24z" transform="translate(-920 -330) translate(900 317) translate(20 13)"/>
                    <path fill="#FBBC05" fill-rule="nonzero" d="M5.285 14.28c-.24-.72-.376-1.49-.376-2.28 0-.79.136-1.56.376-2.28V6.61H1.276C.464 8.23 0 10.065 0 12c0 1.936.464 3.77 1.276 5.39l4.01-3.11z" transform="translate(-920 -330) translate(900 317) translate(20 13)"/>
                    <path fill="#EA4335" fill-rule="nonzero" d="M12 4.773c1.762 0 3.344.605 4.587 1.794l3.442-3.442C17.951 1.19 15.235 0 12 0 7.31 0 3.25 2.69 1.276 6.61l4.01 3.11C6.228 6.884 8.874 4.773 12 4.773z" transform="translate(-920 -330) translate(900 317) translate(20 13)"/>
                    <path d="M0 0L24 0 24 24 0 24z" transform="translate(-920 -330) translate(900 317) translate(20 13)"/>
                </g>
            </g>
        </g>
    </g>
</svg>
