<svg width="19" height="22" viewBox="0 0 19 22" fill="none" xmlns="http://www.w3.org/2000/svg">
<path fill-rule="evenodd" clip-rule="evenodd" d="M1.25 3C1.25 1.48122 2.48122 0.25 4 0.25H16C17.5188 0.25 18.75 1.48122 18.75 3V19C18.75 20.5188 17.5188 21.75 16 21.75H4C2.48122 21.75 1.25 20.5188 1.25 19V16.75H1C0.585786 16.75 0.25 16.4142 0.25 16C0.25 15.5858 0.585786 15.25 1 15.25H1.25V6.75H1C0.585786 6.75 0.25 6.41421 0.25 6C0.25 5.58579 0.585786 5.25 1 5.25H1.25V3ZM2.75 6.75H3C3.41421 6.75 3.75 6.41421 3.75 6C3.75 5.58579 3.41421 5.25 3 5.25H2.75V3C2.75 2.30964 3.30964 1.75 4 1.75H16C16.6904 1.75 17.25 2.30964 17.25 3V19C17.25 19.6904 16.6904 20.25 16 20.25H4C3.30964 20.25 2.75 19.6904 2.75 19V16.75H3C3.41421 16.75 3.75 16.4142 3.75 16C3.75 15.5858 3.41421 15.25 3 15.25H2.75V6.75ZM7.34835 8.34835C8.05161 7.64509 9.00544 7.25 10 7.25C10.9946 7.25 11.9484 7.64509 12.6516 8.34835C13.1754 8.87214 13.5283 9.53492 13.6742 10.25H14C14.4142 10.25 14.75 10.5858 14.75 11C14.75 11.4142 14.4142 11.75 14 11.75H6C5.58579 11.75 5.25 11.4142 5.25 11C5.25 10.5858 5.58579 10.25 6 10.25H6.32575C6.47173 9.53492 6.82456 8.87214 7.34835 8.34835ZM7.87868 10.25H12.1213C12.0105 9.93657 11.8305 9.64856 11.591 9.40901C11.169 8.98705 10.5967 8.75 10 8.75C9.40326 8.75 8.83096 8.98705 8.40901 9.40901C8.16945 9.64856 7.9895 9.93657 7.87868 10.25ZM5.25 14C5.25 13.5858 5.58579 13.25 6 13.25H14C14.4142 13.25 14.75 13.5858 14.75 14C14.75 14.4142 14.4142 14.75 14 14.75H6C5.58579 14.75 5.25 14.4142 5.25 14Z" fill="#FFFFFF"/>
</svg>
