<svg xmlns="http://www.w3.org/2000/svg" width="36" height="36" viewBox="0 0 36 36">
    <g fill="none" fill-rule="evenodd">
        <path d="M0 0H36V36H0z"/>
        <path fill="#000" d="M30 14.47c.39 0 .706.317.706.707v3.53c0 .39-.316.705-.706.705h-1.212l-1.43 9.39c-.105.689-.697 1.198-1.395 1.198h-15.22c-.699 0-1.291-.51-1.396-1.198l-1.43-9.39H6.706c-.39 0-.706-.315-.706-.706v-3.53c0-.389.316-.705.706-.705zm-6.706 6c-.585 0-1.059.475-1.059 1.06v4.588c0 .584.474 1.059 1.06 1.059.584 0 1.058-.475 1.058-1.06V21.53c0-.585-.474-1.06-1.059-1.06zm-4.941 0c-.585 0-1.059.475-1.059 1.06v4.588c0 .584.474 1.059 1.059 1.059.584 0 1.059-.475 1.059-1.06V21.53c0-.585-.475-1.06-1.06-1.06zm-4.941 0c-.585 0-1.06.475-1.06 1.06v4.588c0 .584.475 1.059 1.06 1.059.584 0 1.059-.475 1.059-1.06V21.53c0-.585-.475-1.06-1.06-1.06zM22.982 6c1.065 0 2.007.678 2.344 1.69l1.672 5.016h-2.232l-1.449-4.347c-.048-.144-.182-.241-.334-.241h-9.26c-.152 0-.287.097-.335.241l-1.449 4.347H9.707l1.672-5.017C11.716 6.68 12.66 6 13.724 6z"/>
    </g>
</svg>
