<svg width="367" height="263" viewBox="0 0 367 263" fill="none" xmlns="http://www.w3.org/2000/svg">
  <path fill-rule="evenodd" clip-rule="evenodd" d="M183.5 180C201.576 180 218.04 173.038 230.395 161.629C234.775 157.585 240.312 154.8 246.274 154.8H262.611C266.477 154.8 269.611 151.666 269.611 147.8C269.611 143.934 266.477 140.8 262.611 140.8H241.333C237.467 140.8 234.333 137.666 234.333 133.8C234.333 129.934 237.467 126.8 241.333 126.8H254.278C258.144 126.8 261.278 123.666 261.278 119.8C261.278 115.934 258.144 112.8 254.278 112.8H252.444C248.578 112.8 245.444 109.666 245.444 105.8C245.444 101.934 248.578 98.8 252.444 98.8H276.5C280.366 98.8 283.5 95.666 283.5 91.8C283.5 87.934 280.366 84.8 276.5 84.8H262.066C253.78 84.8 246.578 79.5266 242.16 72.5165C229.842 52.9706 208.174 40 183.5 40C168.931 40 155.409 44.5225 144.242 52.2507C140.298 54.9804 135.725 56.8 130.929 56.8H115.5C111.634 56.8 108.5 59.934 108.5 63.8C108.5 67.666 111.634 70.8 115.5 70.8H124.833C128.699 70.8 131.833 73.934 131.833 77.8C131.833 81.666 128.699 84.8 124.833 84.8H90.5C86.634 84.8 83.5 87.934 83.5 91.8C83.5 95.666 86.634 98.8 90.5 98.8H118.167C122.033 98.8 125.167 101.934 125.167 105.8C125.167 109.666 122.033 112.8 118.167 112.8H104.389C100.523 112.8 97.3889 115.934 97.3889 119.8C97.3889 123.666 100.523 126.8 104.389 126.8H107.853C112.676 126.8 116.797 130.131 118.483 134.649C128.375 161.147 153.753 180 183.5 180Z" fill="#F5EFFF"/>
  <path opacity="0.4" d="M201.545 81.1838C194.495 76.7688 186.07 75.0916 177.867 76.4699C169.663 77.8482 162.249 82.1863 157.029 88.663C151.808 95.1397 149.143 103.306 149.538 111.615C149.933 119.924 153.361 127.8 159.173 133.752C164.984 139.705 172.776 143.32 181.073 143.913C189.371 144.507 197.598 142.038 204.198 136.974C210.798 131.91 215.312 124.602 216.886 116.434C218.46 108.265 216.985 99.803 212.739 92.6491" stroke="url(#paint0_linear_1284_8825)" stroke-width="3" stroke-linecap="round" stroke-linejoin="round"/>
  <path d="M219 74.5L148 145.5" stroke="url(#paint1_linear_1284_8825)" stroke-width="3" stroke-linecap="round" stroke-linejoin="round" stroke-dasharray="1 8 18 8"/>
  <ellipse cx="207.805" cy="44.9004" rx="3.47222" ry="3.5" stroke="#5D1CD4" stroke-linecap="round" stroke-linejoin="round"/>
  <ellipse cx="144.305" cy="167.701" rx="4.86111" ry="4.90001" stroke="#5D1CD4" stroke-linecap="round" stroke-linejoin="round"/>
  <path d="M114.578 108.42C113.888 107.55 113.57 106.439 113.693 105.332C113.816 104.225 114.37 103.213 115.234 102.518C116.097 101.823 117.199 101.502 118.297 101.626C119.396 101.75 120.4 102.308 121.09 103.179C121.779 104.049 122.097 105.16 121.974 106.267C121.851 107.374 121.297 108.386 120.434 109.082C119.57 109.777 118.468 110.097 117.37 109.974C116.272 109.85 115.267 109.291 114.578 108.42L114.578 108.42Z" stroke="#D4BCFF" stroke-linecap="round" stroke-linejoin="round"/>
  <path d="M134.223 48.4004H150.223" stroke="#5D1CD4" stroke-linecap="round"/>
  <path d="M136.223 51.4004H144.223" stroke="#5D1CD4" stroke-linecap="round"/>
  <path d="M118.223 51.4004L133.223 51.4004" stroke="#5D1CD4" stroke-linecap="round"/>
  <path d="M127.223 48.4004H131.223" stroke="#5D1CD4" stroke-linecap="round"/>
  <path d="M225.889 159H241.889" stroke="#5D1CD4" stroke-linecap="round"/>
  <path d="M227.889 162H235.889" stroke="#5D1CD4" stroke-linecap="round"/>
  <path d="M209.889 162L224.889 162" stroke="#5D1CD4" stroke-linecap="round"/>
  <path d="M218.889 159H222.889" stroke="#5D1CD4" stroke-linecap="round"/>
  <path d="M259.194 118.4H273.778" stroke="#D4BCFF" stroke-linecap="round"/>
  <path d="M261.018 121.201H268.309" stroke="#D4BCFF" stroke-linecap="round"/>
  <path d="M244.611 121.201L258.283 121.201" stroke="#D4BCFF" stroke-linecap="round"/>
  <path d="M252.814 118.4H256.46" stroke="#D4BCFF" stroke-linecap="round"/>
  <path d="M112.377 219C112.26 219 112.169 218.968 112.105 218.904C112.041 218.829 112.009 218.739 112.009 218.632V208.184C112.009 208.067 112.041 207.976 112.105 207.912C112.169 207.837 112.26 207.8 112.377 207.8H113.113C113.241 207.8 113.337 207.832 113.401 207.896C113.465 207.949 113.503 207.992 113.513 208.024L118.825 216.184V208.184C118.825 208.067 118.857 207.976 118.921 207.912C118.985 207.837 119.076 207.8 119.193 207.8H119.961C120.079 207.8 120.169 207.837 120.233 207.912C120.308 207.976 120.345 208.067 120.345 208.184V218.616C120.345 218.723 120.308 218.813 120.233 218.888C120.169 218.963 120.084 219 119.977 219H119.209C119.092 219 119.001 218.968 118.937 218.904C118.884 218.84 118.847 218.797 118.825 218.776L113.529 210.696V218.632C113.529 218.739 113.492 218.829 113.417 218.904C113.353 218.968 113.263 219 113.145 219H112.377ZM127.319 219.16C126.508 219.16 125.831 219.005 125.287 218.696C124.743 218.387 124.327 217.96 124.039 217.416C123.751 216.861 123.591 216.232 123.559 215.528C123.548 215.347 123.543 215.117 123.543 214.84C123.543 214.552 123.548 214.323 123.559 214.152C123.591 213.437 123.751 212.808 124.039 212.264C124.337 211.72 124.759 211.293 125.303 210.984C125.847 210.675 126.519 210.52 127.319 210.52C128.119 210.52 128.791 210.675 129.335 210.984C129.879 211.293 130.295 211.72 130.583 212.264C130.881 212.808 131.047 213.437 131.079 214.152C131.089 214.323 131.095 214.552 131.095 214.84C131.095 215.117 131.089 215.347 131.079 215.528C131.047 216.232 130.887 216.861 130.599 217.416C130.311 217.96 129.895 218.387 129.351 218.696C128.807 219.005 128.129 219.16 127.319 219.16ZM127.319 217.928C127.98 217.928 128.508 217.72 128.903 217.304C129.297 216.877 129.511 216.259 129.543 215.448C129.553 215.288 129.559 215.085 129.559 214.84C129.559 214.595 129.553 214.392 129.543 214.232C129.511 213.421 129.297 212.808 128.903 212.392C128.508 211.965 127.98 211.752 127.319 211.752C126.657 211.752 126.124 211.965 125.719 212.392C125.324 212.808 125.116 213.421 125.095 214.232C125.084 214.392 125.079 214.595 125.079 214.84C125.079 215.085 125.084 215.288 125.095 215.448C125.116 216.259 125.324 216.877 125.719 217.304C126.124 217.72 126.657 217.928 127.319 217.928ZM139.596 219C139.479 219 139.388 218.968 139.324 218.904C139.26 218.829 139.228 218.739 139.228 218.632V208.184C139.228 208.067 139.26 207.976 139.324 207.912C139.388 207.837 139.479 207.8 139.596 207.8H143.5C144.705 207.8 145.66 208.083 146.364 208.648C147.068 209.213 147.42 210.051 147.42 211.16C147.42 211.981 147.212 212.653 146.796 213.176C146.391 213.688 145.836 214.045 145.132 214.248L147.596 218.504C147.628 218.568 147.644 218.627 147.644 218.68C147.644 218.765 147.607 218.84 147.532 218.904C147.468 218.968 147.393 219 147.308 219H146.54C146.359 219 146.225 218.952 146.14 218.856C146.055 218.76 145.98 218.664 145.916 218.568L143.596 214.504H140.796V218.632C140.796 218.739 140.759 218.829 140.684 218.904C140.62 218.968 140.529 219 140.412 219H139.596ZM140.796 213.144H143.436C144.236 213.144 144.833 212.979 145.228 212.648C145.623 212.307 145.82 211.805 145.82 211.144C145.82 210.493 145.623 209.997 145.228 209.656C144.844 209.315 144.247 209.144 143.436 209.144H140.796V213.144ZM153.723 219.16C152.624 219.16 151.749 218.824 151.099 218.152C150.448 217.469 150.091 216.541 150.027 215.368C150.016 215.229 150.011 215.053 150.011 214.84C150.011 214.616 150.016 214.435 150.027 214.296C150.069 213.539 150.245 212.877 150.555 212.312C150.864 211.736 151.285 211.293 151.819 210.984C152.363 210.675 152.997 210.52 153.723 210.52C154.533 210.52 155.211 210.691 155.755 211.032C156.309 211.373 156.731 211.859 157.019 212.488C157.307 213.117 157.451 213.853 157.451 214.696V214.968C157.451 215.085 157.413 215.176 157.339 215.24C157.275 215.304 157.189 215.336 157.083 215.336H151.547C151.547 215.347 151.547 215.368 151.547 215.4C151.547 215.432 151.547 215.459 151.547 215.48C151.568 215.917 151.664 216.328 151.835 216.712C152.005 217.085 152.251 217.389 152.571 217.624C152.891 217.859 153.275 217.976 153.723 217.976C154.107 217.976 154.427 217.917 154.683 217.8C154.939 217.683 155.147 217.555 155.307 217.416C155.467 217.267 155.573 217.155 155.627 217.08C155.723 216.941 155.797 216.861 155.851 216.84C155.904 216.808 155.989 216.792 156.107 216.792H156.875C156.981 216.792 157.067 216.824 157.131 216.888C157.205 216.941 157.237 217.021 157.227 217.128C157.216 217.288 157.131 217.485 156.971 217.72C156.811 217.944 156.581 218.168 156.283 218.392C155.984 218.616 155.621 218.803 155.195 218.952C154.768 219.091 154.277 219.16 153.723 219.16ZM151.547 214.232H155.931V214.184C155.931 213.704 155.84 213.277 155.659 212.904C155.488 212.531 155.237 212.237 154.907 212.024C154.576 211.8 154.181 211.688 153.723 211.688C153.264 211.688 152.869 211.8 152.539 212.024C152.219 212.237 151.973 212.531 151.803 212.904C151.632 213.277 151.547 213.704 151.547 214.184V214.232ZM163.244 219.16C162.646 219.16 162.134 219.085 161.708 218.936C161.281 218.787 160.934 218.605 160.668 218.392C160.401 218.179 160.198 217.965 160.06 217.752C159.932 217.539 159.862 217.368 159.852 217.24C159.841 217.123 159.878 217.032 159.964 216.968C160.049 216.904 160.134 216.872 160.22 216.872H160.924C160.988 216.872 161.036 216.883 161.068 216.904C161.11 216.915 161.164 216.957 161.228 217.032C161.366 217.181 161.521 217.331 161.692 217.48C161.862 217.629 162.07 217.752 162.316 217.848C162.572 217.944 162.886 217.992 163.26 217.992C163.804 217.992 164.252 217.891 164.604 217.688C164.956 217.475 165.132 217.165 165.132 216.76C165.132 216.493 165.057 216.28 164.908 216.12C164.769 215.96 164.513 215.816 164.14 215.688C163.777 215.56 163.276 215.427 162.636 215.288C161.996 215.139 161.489 214.957 161.116 214.744C160.742 214.52 160.476 214.259 160.316 213.96C160.156 213.651 160.076 213.304 160.076 212.92C160.076 212.525 160.193 212.147 160.428 211.784C160.662 211.411 161.004 211.107 161.452 210.872C161.91 210.637 162.481 210.52 163.164 210.52C163.718 210.52 164.193 210.589 164.588 210.728C164.982 210.867 165.308 211.043 165.564 211.256C165.82 211.459 166.012 211.661 166.14 211.864C166.268 212.067 166.337 212.237 166.348 212.376C166.358 212.483 166.326 212.573 166.252 212.648C166.177 212.712 166.092 212.744 165.996 212.744H165.324C165.249 212.744 165.185 212.728 165.132 212.696C165.089 212.664 165.046 212.627 165.004 212.584C164.897 212.445 164.769 212.307 164.62 212.168C164.481 212.029 164.294 211.917 164.06 211.832C163.836 211.736 163.537 211.688 163.164 211.688C162.63 211.688 162.23 211.8 161.964 212.024C161.697 212.248 161.564 212.531 161.564 212.872C161.564 213.075 161.622 213.256 161.74 213.416C161.857 213.576 162.081 213.72 162.412 213.848C162.742 213.976 163.233 214.115 163.884 214.264C164.588 214.403 165.142 214.589 165.548 214.824C165.953 215.059 166.241 215.331 166.412 215.64C166.582 215.949 166.668 216.307 166.668 216.712C166.668 217.16 166.534 217.571 166.268 217.944C166.012 218.317 165.628 218.616 165.116 218.84C164.614 219.053 163.99 219.16 163.244 219.16ZM172.624 219.16C171.941 219.16 171.36 219.011 170.88 218.712C170.411 218.403 170.053 217.976 169.808 217.432C169.563 216.888 169.44 216.264 169.44 215.56V211.048C169.44 210.941 169.472 210.856 169.536 210.792C169.611 210.717 169.701 210.68 169.808 210.68H170.608C170.715 210.68 170.8 210.717 170.864 210.792C170.939 210.856 170.976 210.941 170.976 211.048V215.48C170.976 217.069 171.669 217.864 173.056 217.864C173.717 217.864 174.245 217.656 174.64 217.24C175.045 216.813 175.248 216.227 175.248 215.48V211.048C175.248 210.941 175.28 210.856 175.344 210.792C175.419 210.717 175.509 210.68 175.616 210.68H176.4C176.517 210.68 176.608 210.717 176.672 210.792C176.736 210.856 176.768 210.941 176.768 211.048V218.632C176.768 218.739 176.736 218.829 176.672 218.904C176.608 218.968 176.517 219 176.4 219H175.664C175.557 219 175.467 218.968 175.392 218.904C175.328 218.829 175.296 218.739 175.296 218.632V217.928C175.008 218.301 174.656 218.6 174.24 218.824C173.835 219.048 173.296 219.16 172.624 219.16ZM180.529 219C180.422 219 180.332 218.968 180.257 218.904C180.193 218.829 180.161 218.739 180.161 218.632V208.008C180.161 207.901 180.193 207.816 180.257 207.752C180.332 207.677 180.422 207.64 180.529 207.64H181.281C181.398 207.64 181.489 207.677 181.553 207.752C181.617 207.816 181.649 207.901 181.649 208.008V218.632C181.649 218.739 181.617 218.829 181.553 218.904C181.489 218.968 181.398 219 181.281 219H180.529ZM188.284 219C187.686 219 187.201 218.888 186.828 218.664C186.454 218.429 186.182 218.104 186.012 217.688C185.841 217.261 185.756 216.76 185.756 216.184V211.96H184.508C184.401 211.96 184.31 211.928 184.236 211.864C184.172 211.789 184.14 211.699 184.14 211.592V211.048C184.14 210.941 184.172 210.856 184.236 210.792C184.31 210.717 184.401 210.68 184.508 210.68H185.756V208.008C185.756 207.901 185.788 207.816 185.852 207.752C185.926 207.677 186.017 207.64 186.124 207.64H186.876C186.982 207.64 187.068 207.677 187.132 207.752C187.206 207.816 187.244 207.901 187.244 208.008V210.68H189.228C189.334 210.68 189.42 210.717 189.484 210.792C189.558 210.856 189.596 210.941 189.596 211.048V211.592C189.596 211.699 189.558 211.789 189.484 211.864C189.42 211.928 189.334 211.96 189.228 211.96H187.244V216.072C187.244 216.573 187.329 216.968 187.5 217.256C187.67 217.544 187.974 217.688 188.412 217.688H189.388C189.494 217.688 189.58 217.725 189.644 217.8C189.718 217.864 189.756 217.949 189.756 218.056V218.632C189.756 218.739 189.718 218.829 189.644 218.904C189.58 218.968 189.494 219 189.388 219H188.284ZM195.166 219.16C194.568 219.16 194.056 219.085 193.63 218.936C193.203 218.787 192.856 218.605 192.59 218.392C192.323 218.179 192.12 217.965 191.982 217.752C191.854 217.539 191.784 217.368 191.774 217.24C191.763 217.123 191.8 217.032 191.886 216.968C191.971 216.904 192.056 216.872 192.142 216.872H192.846C192.91 216.872 192.958 216.883 192.99 216.904C193.032 216.915 193.086 216.957 193.15 217.032C193.288 217.181 193.443 217.331 193.614 217.48C193.784 217.629 193.992 217.752 194.238 217.848C194.494 217.944 194.808 217.992 195.182 217.992C195.726 217.992 196.174 217.891 196.526 217.688C196.878 217.475 197.054 217.165 197.054 216.76C197.054 216.493 196.979 216.28 196.83 216.12C196.691 215.96 196.435 215.816 196.062 215.688C195.699 215.56 195.198 215.427 194.558 215.288C193.918 215.139 193.411 214.957 193.038 214.744C192.664 214.52 192.398 214.259 192.238 213.96C192.078 213.651 191.998 213.304 191.998 212.92C191.998 212.525 192.115 212.147 192.35 211.784C192.584 211.411 192.926 211.107 193.374 210.872C193.832 210.637 194.403 210.52 195.086 210.52C195.64 210.52 196.115 210.589 196.51 210.728C196.904 210.867 197.23 211.043 197.486 211.256C197.742 211.459 197.934 211.661 198.062 211.864C198.19 212.067 198.259 212.237 198.27 212.376C198.28 212.483 198.248 212.573 198.174 212.648C198.099 212.712 198.014 212.744 197.918 212.744H197.246C197.171 212.744 197.107 212.728 197.054 212.696C197.011 212.664 196.968 212.627 196.926 212.584C196.819 212.445 196.691 212.307 196.542 212.168C196.403 212.029 196.216 211.917 195.982 211.832C195.758 211.736 195.459 211.688 195.086 211.688C194.552 211.688 194.152 211.8 193.886 212.024C193.619 212.248 193.486 212.531 193.486 212.872C193.486 213.075 193.544 213.256 193.662 213.416C193.779 213.576 194.003 213.72 194.334 213.848C194.664 213.976 195.155 214.115 195.806 214.264C196.51 214.403 197.064 214.589 197.47 214.824C197.875 215.059 198.163 215.331 198.334 215.64C198.504 215.949 198.59 216.307 198.59 216.712C198.59 217.16 198.456 217.571 198.19 217.944C197.934 218.317 197.55 218.616 197.038 218.84C196.536 219.053 195.912 219.16 195.166 219.16ZM206.94 219C206.822 219 206.732 218.968 206.668 218.904C206.604 218.829 206.572 218.739 206.572 218.632V208.184C206.572 208.067 206.604 207.976 206.668 207.912C206.732 207.837 206.822 207.8 206.94 207.8H213.468C213.585 207.8 213.676 207.837 213.74 207.912C213.804 207.976 213.836 208.067 213.836 208.184V208.824C213.836 208.941 213.804 209.032 213.74 209.096C213.676 209.16 213.585 209.192 213.468 209.192H208.124V212.92H213.148C213.265 212.92 213.356 212.957 213.42 213.032C213.484 213.096 213.516 213.187 213.516 213.304V213.944C213.516 214.051 213.484 214.141 213.42 214.216C213.356 214.28 213.265 214.312 213.148 214.312H208.124V218.632C208.124 218.739 208.086 218.829 208.012 218.904C207.948 218.968 207.857 219 207.74 219H206.94ZM219.944 219.16C219.133 219.16 218.456 219.005 217.912 218.696C217.368 218.387 216.952 217.96 216.664 217.416C216.376 216.861 216.216 216.232 216.184 215.528C216.173 215.347 216.168 215.117 216.168 214.84C216.168 214.552 216.173 214.323 216.184 214.152C216.216 213.437 216.376 212.808 216.664 212.264C216.962 211.72 217.384 211.293 217.928 210.984C218.472 210.675 219.144 210.52 219.944 210.52C220.744 210.52 221.416 210.675 221.96 210.984C222.504 211.293 222.92 211.72 223.208 212.264C223.506 212.808 223.672 213.437 223.704 214.152C223.714 214.323 223.72 214.552 223.72 214.84C223.72 215.117 223.714 215.347 223.704 215.528C223.672 216.232 223.512 216.861 223.224 217.416C222.936 217.96 222.52 218.387 221.976 218.696C221.432 219.005 220.754 219.16 219.944 219.16ZM219.944 217.928C220.605 217.928 221.133 217.72 221.528 217.304C221.922 216.877 222.136 216.259 222.168 215.448C222.178 215.288 222.184 215.085 222.184 214.84C222.184 214.595 222.178 214.392 222.168 214.232C222.136 213.421 221.922 212.808 221.528 212.392C221.133 211.965 220.605 211.752 219.944 211.752C219.282 211.752 218.749 211.965 218.344 212.392C217.949 212.808 217.741 213.421 217.72 214.232C217.709 214.392 217.704 214.595 217.704 214.84C217.704 215.085 217.709 215.288 217.72 215.448C217.741 216.259 217.949 216.877 218.344 217.304C218.749 217.72 219.282 217.928 219.944 217.928ZM229.827 219.16C229.144 219.16 228.563 219.011 228.083 218.712C227.614 218.403 227.256 217.976 227.011 217.432C226.766 216.888 226.643 216.264 226.643 215.56V211.048C226.643 210.941 226.675 210.856 226.739 210.792C226.814 210.717 226.904 210.68 227.011 210.68H227.811C227.918 210.68 228.003 210.717 228.067 210.792C228.142 210.856 228.179 210.941 228.179 211.048V215.48C228.179 217.069 228.872 217.864 230.259 217.864C230.92 217.864 231.448 217.656 231.843 217.24C232.248 216.813 232.451 216.227 232.451 215.48V211.048C232.451 210.941 232.483 210.856 232.547 210.792C232.622 210.717 232.712 210.68 232.819 210.68H233.603C233.72 210.68 233.811 210.717 233.875 210.792C233.939 210.856 233.971 210.941 233.971 211.048V218.632C233.971 218.739 233.939 218.829 233.875 218.904C233.811 218.968 233.72 219 233.603 219H232.867C232.76 219 232.67 218.968 232.595 218.904C232.531 218.829 232.499 218.739 232.499 218.632V217.928C232.211 218.301 231.859 218.6 231.443 218.824C231.038 219.048 230.499 219.16 229.827 219.16ZM237.716 219C237.609 219 237.519 218.968 237.444 218.904C237.38 218.829 237.348 218.739 237.348 218.632V211.048C237.348 210.941 237.38 210.856 237.444 210.792C237.519 210.717 237.609 210.68 237.716 210.68H238.468C238.575 210.68 238.66 210.717 238.724 210.792C238.799 210.856 238.836 210.941 238.836 211.048V211.752C239.113 211.389 239.46 211.096 239.876 210.872C240.303 210.637 240.847 210.52 241.508 210.52C242.201 210.52 242.788 210.675 243.268 210.984C243.759 211.283 244.127 211.704 244.372 212.248C244.617 212.781 244.74 213.405 244.74 214.12V218.632C244.74 218.739 244.708 218.829 244.644 218.904C244.58 218.968 244.495 219 244.388 219H243.588C243.481 219 243.391 218.968 243.316 218.904C243.252 218.829 243.22 218.739 243.22 218.632V214.2C243.22 213.453 243.039 212.872 242.676 212.456C242.313 212.029 241.78 211.816 241.076 211.816C240.415 211.816 239.881 212.029 239.476 212.456C239.081 212.872 238.884 213.453 238.884 214.2V218.632C238.884 218.739 238.847 218.829 238.772 218.904C238.708 218.968 238.623 219 238.516 219H237.716ZM251.091 219.16C250.505 219.16 249.998 219.059 249.571 218.856C249.145 218.643 248.793 218.36 248.515 218.008C248.249 217.645 248.046 217.235 247.907 216.776C247.779 216.317 247.705 215.832 247.683 215.32C247.673 215.149 247.667 214.989 247.667 214.84C247.667 214.691 247.673 214.531 247.683 214.36C247.705 213.859 247.779 213.379 247.907 212.92C248.046 212.461 248.249 212.051 248.515 211.688C248.793 211.325 249.145 211.043 249.571 210.84C249.998 210.627 250.505 210.52 251.091 210.52C251.721 210.52 252.243 210.632 252.659 210.856C253.075 211.08 253.417 211.357 253.683 211.688V208.008C253.683 207.901 253.715 207.816 253.779 207.752C253.854 207.677 253.945 207.64 254.051 207.64H254.819C254.926 207.64 255.011 207.677 255.075 207.752C255.15 207.816 255.187 207.901 255.187 208.008V218.632C255.187 218.739 255.15 218.829 255.075 218.904C255.011 218.968 254.926 219 254.819 219H254.099C253.982 219 253.891 218.968 253.827 218.904C253.763 218.829 253.731 218.739 253.731 218.632V217.96C253.465 218.301 253.118 218.589 252.691 218.824C252.265 219.048 251.731 219.16 251.091 219.16ZM251.427 217.864C251.961 217.864 252.387 217.741 252.707 217.496C253.027 217.251 253.267 216.941 253.427 216.568C253.587 216.184 253.673 215.795 253.683 215.4C253.694 215.229 253.699 215.027 253.699 214.792C253.699 214.547 253.694 214.339 253.683 214.168C253.673 213.795 253.582 213.427 253.411 213.064C253.251 212.701 253.006 212.403 252.675 212.168C252.355 211.933 251.939 211.816 251.427 211.816C250.883 211.816 250.451 211.939 250.131 212.184C249.811 212.419 249.582 212.733 249.443 213.128C249.305 213.512 249.225 213.928 249.203 214.376C249.193 214.685 249.193 214.995 249.203 215.304C249.225 215.752 249.305 216.173 249.443 216.568C249.582 216.952 249.811 217.267 250.131 217.512C250.451 217.747 250.883 217.864 251.427 217.864Z" fill="#AC87EF"/>
  <defs>
    <linearGradient id="paint0_linear_1284_8825" x1="212.224" y1="155.138" x2="137.626" y2="82.9617" gradientUnits="userSpaceOnUse">
      <stop stop-color="#763AE0"/>
      <stop offset="1" stop-color="#EED2FF"/>
    </linearGradient>
    <linearGradient id="paint1_linear_1284_8825" x1="210.014" y1="152.66" x2="150.85" y2="83.3171" gradientUnits="userSpaceOnUse">
      <stop stop-color="#763AE0"/>
      <stop offset="1" stop-color="#EED2FF"/>
    </linearGradient>
  </defs>
</svg>
