<svg width="16" height="17" viewBox="0 0 16 17" fill="none" xmlns="http://www.w3.org/2000/svg">
  <circle cx="8" cy="8.5" r="7" stroke="#C4AAF4" stroke-width="2"/>
  <path d="M8.156 11.62C7.676 11.62 7.264 11.564 6.92 11.452C6.584 11.34 6.308 11.2 6.092 11.032C5.876 10.864 5.716 10.696 5.612 10.528C5.508 10.36 5.452 10.22 5.444 10.108C5.436 10.02 5.46 9.952 5.516 9.904C5.58 9.848 5.648 9.82 5.72 9.82H6.668C6.7 9.82 6.728 9.824 6.752 9.832C6.776 9.84 6.808 9.864 6.848 9.904C6.952 9.992 7.06 10.084 7.172 10.18C7.292 10.276 7.432 10.36 7.592 10.432C7.752 10.496 7.952 10.528 8.192 10.528C8.504 10.528 8.764 10.468 8.972 10.348C9.188 10.22 9.296 10.04 9.296 9.808C9.296 9.64 9.248 9.504 9.152 9.4C9.064 9.296 8.896 9.204 8.648 9.124C8.4 9.036 8.048 8.944 7.592 8.848C7.144 8.744 6.772 8.612 6.476 8.452C6.18 8.292 5.96 8.092 5.816 7.852C5.672 7.612 5.6 7.332 5.6 7.012C5.6 6.7 5.692 6.404 5.876 6.124C6.068 5.836 6.348 5.6 6.716 5.416C7.092 5.232 7.556 5.14 8.108 5.14C8.54 5.14 8.916 5.196 9.236 5.308C9.556 5.412 9.82 5.544 10.028 5.704C10.244 5.864 10.408 6.028 10.52 6.196C10.632 6.356 10.692 6.496 10.7 6.616C10.708 6.704 10.684 6.776 10.628 6.832C10.572 6.88 10.508 6.904 10.436 6.904H9.548C9.508 6.904 9.472 6.896 9.44 6.88C9.408 6.864 9.376 6.844 9.344 6.82C9.256 6.74 9.16 6.656 9.056 6.568C8.952 6.48 8.824 6.404 8.672 6.34C8.528 6.268 8.336 6.232 8.096 6.232C7.792 6.232 7.56 6.3 7.4 6.436C7.24 6.564 7.16 6.728 7.16 6.928C7.16 7.064 7.196 7.184 7.268 7.288C7.348 7.384 7.504 7.476 7.736 7.564C7.968 7.652 8.32 7.744 8.792 7.84C9.328 7.936 9.752 8.08 10.064 8.272C10.384 8.456 10.608 8.672 10.736 8.92C10.872 9.16 10.94 9.428 10.94 9.724C10.94 10.084 10.832 10.408 10.616 10.696C10.408 10.984 10.096 11.212 9.68 11.38C9.272 11.54 8.764 11.62 8.156 11.62Z" fill="#C4AAF4"/>
</svg>
