<svg xmlns="http://www.w3.org/2000/svg" width="20" height="20" viewBox="0 0 20 20">
    <g fill="none" fill-rule="evenodd">
        <g fill="#000000" fill-rule="nonzero" stroke="#000000" stroke-width=".5">
            <g>
                <g>
                    <path d="M30.503 11c-2.942-.005-5.614 1.715-6.83 4.394-1.215 2.68-.748 5.822 1.194 8.032l-4.714 4.715c-.13.125-.182.311-.137.486.046.174.183.311.357.357.175.045.36-.007.486-.137l4.715-4.714c2.506 2.193 6.159 2.468 8.966.675 2.806-1.792 4.093-5.221 3.159-8.418-.935-3.196-3.866-5.392-7.196-5.39zm0 13.995c-3.59 0-6.498-2.909-6.498-6.498 0-3.588 2.909-6.497 6.498-6.497C34.09 12 37 14.909 37 18.497c-.004 3.587-2.91 6.494-6.497 6.498z" transform="translate(-594 -70) translate(0 40) translate(575 20)"/>
                </g>
            </g>
        </g>
    </g>
</svg>
