<svg width="18" height="18" viewBox="0 0 18 18" fill="none" xmlns="http://www.w3.org/2000/svg">
<path fill-rule="evenodd" clip-rule="evenodd" d="M7.5 2C7.23478 2 6.98043 2.10536 6.79289 2.29289C6.60536 2.48043 6.5 2.73478 6.5 3V4H11.5V3C11.5 2.73478 11.3946 2.48043 11.2071 2.29289C11.0196 2.10536 10.7652 2 10.5 2H7.5ZM12.5 4V3C12.5 2.46957 12.2893 1.96086 11.9142 1.58579C11.5391 1.21071 11.0304 1 10.5 1H7.5C6.96957 1 6.46086 1.21071 6.08579 1.58579C5.71071 1.96086 5.5 2.46957 5.5 3V4H2.25C1.97386 4 1.75 4.22386 1.75 4.5C1.75 4.77614 1.97386 5 2.25 5H3.25V15C3.25 15.5304 3.46071 16.0391 3.83579 16.4142C4.21086 16.7893 4.71957 17 5.25 17H12.75C13.2804 17 13.7891 16.7893 14.1642 16.4142C14.5393 16.0391 14.75 15.5304 14.75 15V5H15.75C16.0261 5 16.25 4.77614 16.25 4.5C16.25 4.22386 16.0261 4 15.75 4H12.5ZM4.25 5V15C4.25 15.2652 4.35536 15.5196 4.54289 15.7071C4.73043 15.8946 4.98478 16 5.25 16H12.75C13.0152 16 13.2696 15.8946 13.4571 15.7071C13.6446 15.5196 13.75 15.2652 13.75 15V5H4.25ZM7.5 7.75C7.77614 7.75 8 7.97386 8 8.25V12.75C8 13.0261 7.77614 13.25 7.5 13.25C7.22386 13.25 7 13.0261 7 12.75V8.25C7 7.97386 7.22386 7.75 7.5 7.75ZM10.5 7.75C10.7761 7.75 11 7.97386 11 8.25V12.75C11 13.0261 10.7761 13.25 10.5 13.25C10.2239 13.25 10 13.0261 10 12.75V8.25C10 7.97386 10.2239 7.75 10.5 7.75Z" fill="#5D1CD4"/>
</svg>
