<svg width="34" height="34" viewBox="0 0 34 34" fill="none" xmlns="http://www.w3.org/2000/svg">
<path fill-rule="evenodd" clip-rule="evenodd" d="M17 0.5C7.88787 0.5 0.5 7.88787 0.5 17C0.5 26.1121 7.88787 33.5 17 33.5C26.1121 33.5 33.5 26.1121 33.5 17C33.5 7.88787 26.1121 0.5 17 0.5ZM17 3.25002C24.5818 3.25002 30.75 9.41827 30.75 17C30.75 24.5818 24.5818 30.75 17 30.75C9.41825 30.75 3.25 24.5818 3.25 17C3.25 9.41827 9.41825 3.25002 17 3.25002ZM23.9933 13.1033C24.678 13.0208 25.3311 12.8393 25.9375 12.5698C25.4838 13.249 24.9104 13.8458 24.2476 14.3215C24.4621 19.0831 20.9119 24.392 14.6254 24.392C12.7141 24.392 10.9363 23.8324 9.4375 22.8713C11.2346 23.083 13.0263 22.5839 14.4521 21.4674C12.9726 21.4399 11.72 20.4623 11.2896 19.1175C11.8204 19.2193 12.3429 19.189 12.8186 19.0598C11.1906 18.7325 10.0659 17.2654 10.103 15.6979C10.5595 15.9509 11.0806 16.1035 11.6348 16.1214C10.1278 15.1135 9.70013 13.1225 10.587 11.6018C12.2563 13.6491 14.7519 14.9966 17.5638 15.1383C17.0701 13.0208 18.6761 10.9816 20.8624 10.9816C21.8345 10.9816 22.7159 11.3928 23.3319 12.0514C24.1033 11.9001 24.8279 11.6183 25.4824 11.2305C25.228 12.0211 24.6931 12.6839 23.9933 13.1033Z" fill="white"/>
</svg>
