<svg width="86" height="72" viewBox="0 0 86 72" fill="none" xmlns="http://www.w3.org/2000/svg">
<path id="icn_door-delivery" d="M55.0941 4.95652V6.95652C55.95 6.95652 56.7111 6.41184 56.9872 5.60165L55.0941 4.95652ZM66.1673 2H68.1673C68.1673 0.89543 67.2719 0 66.1673 0V2ZM66.1673 10.8696V12.8696C67.2719 12.8696 68.1673 11.9741 68.1673 10.8696H66.1673ZM62.4098 10.8696V8.86957C61.6969 8.86957 61.0378 9.24912 60.68 9.86579C60.3221 10.4825 60.3196 11.243 60.6734 11.862L62.4098 10.8696ZM71.834 40.4348L73.278 41.8186C73.6421 41.4386 73.8418 40.9304 73.8337 40.4041L71.834 40.4348ZM71.0759 41.2259L69.6319 39.8421C69.1548 40.3399 68.9678 41.0483 69.137 41.7167C69.3062 42.3851 69.8078 42.9192 70.4642 43.1301L71.0759 41.2259ZM83.1673 52.2609L84.0913 54.0346C85.0414 53.5397 85.4328 52.3841 84.979 51.4137L83.1673 52.2609ZM79.598 54.1202L78.674 52.3465C77.7895 52.8072 77.3796 53.8492 77.7131 54.7891L79.598 54.1202ZM58.0768 55.2174L60.0165 55.7048C60.1667 55.1071 60.033 54.4735 59.654 53.9875C59.275 53.5015 58.6931 53.2174 58.0768 53.2174V55.2174ZM57.6673 55.2174V53.2174C57.1221 53.2174 56.6006 53.44 56.2234 53.8336L57.6673 55.2174ZM57.3242 55.5754L55.8803 54.1916L55.879 54.1929L57.3242 55.5754ZM29.3174 58.0238L29.781 56.0782C29.1814 55.9354 28.5494 56.0769 28.0681 56.4619C27.5868 56.8469 27.3099 57.4324 27.3175 58.0487L29.3174 58.0238ZM29.3257 58.0973L31.299 57.7719L31.299 57.7718L29.3257 58.0973ZM10.6019 49.3043L11.9484 50.7831C12.4446 50.3313 12.6811 49.6608 12.5782 48.9977C12.4753 48.3345 12.0467 47.7672 11.437 47.487L10.6019 49.3043ZM3.83398 46.3478H1.83398C1.83398 47.2031 2.37786 47.9637 3.18719 48.2403L3.83398 46.3478ZM12.334 34.5217V32.5217C12.1103 32.5217 11.8882 32.5593 11.6769 32.6327L12.334 34.5217ZM35.0007 34.5217H37.0007C37.0007 33.4172 36.1052 32.5217 35.0007 32.5217V34.5217ZM56.0625 10.8696L57.9171 10.1209C57.6119 9.36472 56.878 8.86957 56.0625 8.86957V10.8696ZM46.334 10.8696V8.86957C46.3241 8.86957 46.3143 8.86964 46.3045 8.86978L46.334 10.8696ZM43.8466 6.42258L45.5921 7.3989V7.3989L43.8466 6.42258ZM46.334 4.95652L46.3045 6.9563C46.3143 6.95645 46.3241 6.95652 46.334 6.95652V4.95652ZM12.3662 21.8336L12.3378 23.8334C12.3473 23.8336 12.3567 23.8336 12.3662 23.8336V21.8336ZM9.88589 23.2385L11.6144 24.2445L11.6144 24.2445L9.88589 23.2385ZM34.9685 21.8336V23.8336C34.9779 23.8336 34.9874 23.8336 34.9968 23.8334L34.9685 21.8336ZM37.4487 23.2385L39.1773 22.2324V22.2324L37.4487 23.2385ZM37.4487 26.0949L39.1773 27.101V27.101L37.4487 26.0949ZM34.9685 27.4997L34.9968 25.4999C34.9874 25.4998 34.9779 25.4997 34.9685 25.4997V27.4997ZM12.3662 27.4997V25.4997C12.3567 25.4997 12.3473 25.4998 12.3378 25.4999L12.3662 27.4997ZM9.88589 26.0949L11.6144 25.0888L11.6144 25.0888L9.88589 26.0949ZM22.8151 55.6102L24.5215 54.567C24.3151 54.2294 24.0132 53.9606 23.654 53.7947L22.8151 55.6102ZM17.1318 53L17.9621 51.1805C17.6084 51.0191 17.2154 50.9643 16.8311 51.0227L17.1318 53ZM64.1032 55.8333V53.8333C63.3867 53.8333 62.7249 54.2166 62.3684 54.8381L64.1032 55.8333ZM73.8981 55.8333L75.6329 54.8381C75.2764 54.2166 74.6146 53.8333 73.8981 53.8333V55.8333ZM59.084 0C56.2966 0 54.0344 1.86569 53.201 4.31139L56.9872 5.60165C57.325 4.6104 58.1774 4 59.084 4V0ZM66.1673 0H59.084V4H66.1673V0ZM68.1673 10.8696V2H64.1673V10.8696H68.1673ZM62.4098 12.8696H66.1673V8.86957H62.4098V12.8696ZM73.8337 40.4041C73.6578 28.9244 67.4498 15.657 64.1462 9.87712L60.6734 11.862C63.8976 17.503 69.6744 30.0363 69.8342 40.4654L73.8337 40.4041ZM72.5198 42.6097L73.278 41.8186L70.39 39.051L69.6319 39.8421L72.5198 42.6097ZM83.1673 52.2609C84.979 51.4137 84.9787 51.413 84.9784 51.4124C84.9783 51.4121 84.978 51.4114 84.9777 51.4109C84.9772 51.4098 84.9767 51.4086 84.976 51.4073C84.9748 51.4047 84.9733 51.4016 84.9716 51.3979C84.9681 51.3906 84.9637 51.3813 84.9582 51.3699C84.9474 51.3473 84.9325 51.3168 84.9137 51.2788C84.8761 51.2027 84.8225 51.0967 84.753 50.9642C84.6139 50.6995 84.4103 50.328 84.1414 49.8784C83.6047 48.9812 82.8015 47.762 81.7237 46.454C79.5848 43.8582 76.2641 40.7918 71.6875 39.3217L70.4642 43.1301C74.0439 44.2799 76.769 46.731 78.6367 48.9977C79.5623 50.121 80.2526 51.1693 80.7086 51.9317C80.9361 52.312 81.1036 52.6184 81.2116 52.8241C81.2656 52.9268 81.3046 53.0042 81.3286 53.0527C81.3406 53.0769 81.3488 53.094 81.3533 53.1034C81.3556 53.108 81.3569 53.1108 81.3573 53.1116C81.3575 53.112 81.3574 53.1119 81.3572 53.1113C81.357 53.111 81.3568 53.1106 81.3566 53.1101C81.3564 53.1098 81.3562 53.1093 81.3561 53.1092C81.3559 53.1086 81.3556 53.1081 83.1673 52.2609ZM80.522 55.894L84.0913 54.0346L82.2433 50.4871L78.674 52.3465L80.522 55.894ZM82.334 58.1739C82.334 56.4771 81.9947 54.8939 81.4828 53.4514L77.7131 54.7891C78.1031 55.8879 78.334 57.0158 78.334 58.1739H82.334ZM69.0007 72C76.4103 72 82.334 65.6938 82.334 58.1739H78.334C78.334 63.6468 74.0424 68 69.0007 68V72ZM55.6673 58.1739C55.6673 65.6938 61.591 72 69.0007 72V68C63.9589 68 59.6673 63.6468 59.6673 58.1739H55.6673ZM56.1371 54.73C55.8747 55.7745 55.6673 56.9272 55.6673 58.1739H59.6673C59.6673 57.3689 59.8009 56.5629 60.0165 55.7048L56.1371 54.73ZM57.6673 57.2174H58.0768V53.2174H57.6673V57.2174ZM58.7682 56.9592L59.1113 56.6012L56.2234 53.8336L55.8803 54.1916L58.7682 56.9592ZM51.3145 60.1739C54.1278 60.1739 56.8083 59.0079 58.7694 56.9579L55.879 54.1929C54.6554 55.4719 53.0118 56.1739 51.3145 56.1739V60.1739ZM30.5791 60.1739H51.3145V56.1739H30.5791V60.1739ZM28.8538 59.9693C29.4107 60.102 29.9876 60.1739 30.5791 60.1739V56.1739C30.3135 56.1739 30.0477 56.1418 29.781 56.0782L28.8538 59.9693ZM31.299 57.7718C31.296 57.7535 31.3005 57.7792 31.3045 57.8114C31.3092 57.8484 31.3162 57.9146 31.3172 57.9989L27.3175 58.0487C27.32 58.2494 27.3521 58.4211 27.3523 58.4228L31.299 57.7718ZM31.334 58.1739C31.334 57.9577 31.2992 57.773 31.299 57.7719L27.3523 58.4226C27.3555 58.442 27.3505 58.4136 27.3462 58.3782C27.3412 58.3374 27.334 58.2654 27.334 58.1739H31.334ZM18.0007 72C25.4103 72 31.334 65.6938 31.334 58.1739H27.334C27.334 63.6468 23.0424 68 18.0007 68V72ZM4.66732 58.1739C4.66732 65.6938 10.591 72 18.0007 72V68C12.9589 68 8.66732 63.6468 8.66732 58.1739H4.66732ZM9.25535 47.8256C6.47749 50.355 4.66732 54.0382 4.66732 58.1739H8.66732C8.66732 55.2309 9.95228 52.6008 11.9484 50.7831L9.25535 47.8256ZM3.18719 48.2403C4.08428 48.5469 6.65224 49.6905 9.76682 51.1217L11.437 47.487C8.42184 46.1016 5.62052 44.8448 4.48078 44.4553L3.18719 48.2403ZM12.334 34.5217C11.6769 32.6327 11.6761 32.6331 11.6751 32.6334C11.6748 32.6335 11.6738 32.6338 11.6731 32.6341C11.6717 32.6346 11.6702 32.6351 11.6685 32.6357C11.6651 32.6369 11.6613 32.6383 11.6569 32.6398C11.6481 32.6429 11.6373 32.6468 11.6244 32.6515C11.5987 32.6609 11.565 32.6734 11.5238 32.6892C11.4415 32.7207 11.329 32.7653 11.1906 32.8237C10.9142 32.9404 10.5326 33.1134 10.0807 33.3491C9.18108 33.8185 7.9797 34.549 6.77163 35.5995C4.33657 37.7169 1.83398 41.185 1.83398 46.3478H5.83398C5.83398 42.6411 7.5814 40.1961 9.39634 38.6179C10.3133 37.8206 11.2369 37.2576 11.931 36.8955C12.276 36.7155 12.5584 36.5881 12.7469 36.5085C12.841 36.4688 12.9111 36.4412 12.9532 36.4251C12.9743 36.417 12.9883 36.4118 12.9948 36.4095C12.998 36.4083 12.9994 36.4078 12.9988 36.408C12.9985 36.4081 12.9977 36.4084 12.9964 36.4089C12.9957 36.4091 12.995 36.4094 12.9941 36.4097C12.9936 36.4098 12.9929 36.4101 12.9926 36.4102C12.9919 36.4104 12.991 36.4107 12.334 34.5217ZM35.0007 32.5217H12.334V36.5217H35.0007V32.5217ZM37.0007 40.4348V34.5217H33.0007V40.4348H37.0007ZM40.6673 44.3478C38.7204 44.3478 37.0007 42.6782 37.0007 40.4348H33.0007C33.0007 44.7252 36.3525 48.3478 40.6673 48.3478V44.3478ZM46.334 44.3478H40.6673V48.3478H46.334V44.3478ZM58.5007 28.6087C58.5007 39.4113 50.8167 44.3478 46.334 44.3478V48.3478C53.1846 48.3478 62.5007 41.4583 62.5007 28.6087H58.5007ZM54.2079 11.6182C55.8774 15.7543 58.5007 23.109 58.5007 28.6087H62.5007C62.5007 22.2366 59.5692 14.2139 57.9171 10.1209L54.2079 11.6182ZM46.334 12.8696H56.0625V8.86957H46.334V12.8696ZM42.1011 10.3798C42.9604 11.916 44.5775 12.8957 46.3635 12.8693L46.3045 8.86978C46.0469 8.87358 45.7632 8.73292 45.5921 8.42719L42.1011 10.3798ZM42.1011 5.44626C41.2467 6.97386 41.2467 8.85222 42.1011 10.3798L45.5921 8.42719C45.4164 8.11289 45.4164 7.71319 45.5921 7.3989L42.1011 5.44626ZM46.3635 2.95674C44.5775 2.93038 42.9604 3.9101 42.1011 5.44626L45.5921 7.3989C45.7632 7.09317 46.0469 6.9525 46.3045 6.9563L46.3635 2.95674ZM55.0941 2.95652H46.334V6.95652H55.0941V2.95652ZM12.3945 19.8338C10.6517 19.8091 9.03337 20.7273 8.15737 22.2324L11.6144 24.2445C11.7657 23.9846 12.0428 23.8292 12.3378 23.8334L12.3945 19.8338ZM34.9685 19.8336H12.3662V23.8336H34.9685V19.8336ZM39.1773 22.2324C38.3013 20.7273 36.6829 19.8091 34.9401 19.8338L34.9968 23.8334C35.2918 23.8292 35.5689 23.9846 35.7202 24.2445L39.1773 22.2324ZM39.1773 27.101C40.0529 25.5966 40.0529 23.7367 39.1773 22.2324L35.7202 24.2445C35.8719 24.5051 35.8719 24.8282 35.7202 25.0888L39.1773 27.101ZM34.9401 29.4995C36.6829 29.5242 38.3013 28.606 39.1773 27.101L35.7202 25.0888C35.5689 25.3488 35.2918 25.5041 34.9968 25.4999L34.9401 29.4995ZM12.3662 29.4997H34.9685V25.4997H12.3662V29.4997ZM8.15737 27.101C9.03337 28.606 10.6517 29.5242 12.3945 29.4995L12.3378 25.4999C12.0428 25.5041 11.7657 25.3488 11.6144 25.0888L8.15737 27.101ZM8.15737 22.2324C7.28174 23.7367 7.28174 25.5966 8.15737 27.101L11.6144 25.0888C11.4627 24.8282 11.4627 24.5051 11.6144 24.2445L8.15737 22.2324ZM23.654 53.7947C21.7433 52.9118 20.2585 52.2283 17.9621 51.1805L16.3016 54.8195C18.591 55.8642 20.0699 56.545 21.9762 57.4258L23.654 53.7947ZM25.6673 58.622C25.6673 57.117 25.2354 55.7348 24.5215 54.567L21.1087 56.6534C21.4621 57.2314 21.6673 57.8969 21.6673 58.622H25.6673ZM18.0007 66.3333C22.2832 66.3333 25.6673 62.8999 25.6673 58.622H21.6673C21.6673 60.7204 20.0445 62.3333 18.0007 62.3333V66.3333ZM10.334 58.622C10.334 62.8999 13.7181 66.3333 18.0007 66.3333V62.3333C15.9568 62.3333 14.334 60.7204 14.334 58.622H10.334ZM16.8311 51.0227C13.1255 51.5863 10.334 54.7376 10.334 58.622H14.334C14.334 56.732 15.664 55.2462 17.4325 54.9773L16.8311 51.0227ZM64.1032 57.8333H73.8981V53.8333H64.1032V57.8333ZM65.334 58.6667C65.334 58.0064 65.5164 57.3892 65.838 56.8285L62.3684 54.8381C61.7339 55.9441 61.334 57.2415 61.334 58.6667H65.334ZM69.0006 62.3333C66.942 62.3333 65.334 60.7253 65.334 58.6667H61.334C61.334 62.9344 64.7329 66.3333 69.0006 66.3333V62.3333ZM72.6673 58.6667C72.6673 60.7253 71.0593 62.3333 69.0006 62.3333V66.3333C73.2684 66.3333 76.6673 62.9344 76.6673 58.6667H72.6673ZM72.1633 56.8285C72.4849 57.3892 72.6673 58.0064 72.6673 58.6667H76.6673C76.6673 57.2415 76.2674 55.9441 75.6329 54.8381L72.1633 56.8285Z" fill="url(#paint0_linear_138_2987)"/>
<defs>
<linearGradient id="paint0_linear_138_2987" x1="77.0122" y1="81.1379" x2="2.91732" y2="-2.49914" gradientUnits="userSpaceOnUse">
<stop stop-color="#763AE0"/>
<stop offset="1" stop-color="#EED2FF"/>
</linearGradient>
</defs>
</svg>
