<svg width="44" height="43" viewBox="0 0 44 43" fill="none" xmlns="http://www.w3.org/2000/svg">
<path d="M36.2502 1H41.1502C41.9234 1 42.5502 1.62371 42.5502 2.3931V7.26897M8.2502 41.4H3.3502C2.577 41.4 1.9502 40.7763 1.9502 40.0069L1.9502 35.131M8.2502 1L3.3502 1C2.577 1 1.9502 1.62371 1.9502 2.3931L1.9502 7.26897M36.2502 41.4H41.1502C41.9234 41.4 42.5502 40.7763 42.5502 40.0069V35.131M13.8502 12.1448H13.1502M31.3502 30.2552H30.6502M25.7502 17.7172V12.8414M8.95019 29.5586H8.2502M13.8502 24.6828H11.0502H8.2502M36.2502 7.26897H31.7002M27.5002 7.26897H25.7502M21.5502 11.4483H19.4502M18.7502 35.8276H8.2502M18.7502 14.2345V19.1103M14.9002 35.4793V31.3C14.9002 30.5306 15.527 29.9069 16.3002 29.9069H17.3502C18.1234 29.9069 18.7502 29.2832 18.7502 28.5138V21.5483M31.3502 24.6828H18.7502M36.2502 18.4138V14.2345C36.2502 13.4651 35.6234 12.8414 34.8502 12.8414L31.7002 12.8414M36.2502 18.4138V26.7724M36.2502 18.4138H33.8002M25.7502 26.0759V33.7379C25.7502 34.5073 26.377 35.131 27.1502 35.131H34.8502C35.6234 35.131 36.2502 34.5073 36.2502 33.7379V26.0759C36.2502 25.3065 35.6234 24.6828 34.8502 24.6828H27.1502C26.377 24.6828 25.7502 25.3065 25.7502 26.0759ZM25.7502 26.0759V21.8966M18.7502 21.5483H15.9502M18.7502 21.5483V19.1103M29.9502 24.6828V21.8966M18.7502 19.1103H21.5502M9.6502 17.7172H17.3502C18.1234 17.7172 18.7502 17.0935 18.7502 16.3241V8.66207C18.7502 7.89268 18.1234 7.26897 17.3502 7.26897H9.6502C8.877 7.26897 8.2502 7.89268 8.2502 8.66207V16.3241C8.2502 17.0935 8.877 17.7172 9.6502 17.7172Z" stroke="url(#paint0_linear_138_2992)" stroke-width="2" stroke-linecap="round" stroke-linejoin="round"/>
<defs>
<linearGradient id="paint0_linear_138_2992" x1="39.4002" y1="48.0172" x2="-4.92679" y2="4.91728" gradientUnits="userSpaceOnUse">
<stop stop-color="#763AE0"/>
<stop offset="1" stop-color="#EED2FF"/>
</linearGradient>
</defs>
</svg>
